<?xml version="1.0" encoding="UTF-8" standalone="no"?>
<svg
   xmlns:dc="http://purl.org/dc/elements/1.1/"
   xmlns:cc="http://creativecommons.org/ns#"
   xmlns:rdf="http://www.w3.org/1999/02/22-rdf-syntax-ns#"
   xmlns:svg="http://www.w3.org/2000/svg"
   xmlns="http://www.w3.org/2000/svg"
   id="svg190"
   viewBox="0 0 62.06431 16.1286"
   height="28.342768mm"
   width="109.06553mm"
   version="1.2">
  <metadata
     id="metadata196">
    <rdf:RDF>
      <cc:Work
         rdf:about="">
        <dc:format>image/svg+xml</dc:format>
        <dc:type
           rdf:resource="http://purl.org/dc/dcmitype/StillImage" />
      </cc:Work>
    </rdf:RDF>
  </metadata>
  <defs
     id="defs194" />
  <!-- Page: 1/1 -->
  <text
     y="-1.0193001"
     x="-1.4245026"
     style="font-size:2.20009995px;font-family:'Century Schoolbook L';text-anchor:start;fill:currentColor"
     id="text4"
     font-size="2.2001">
    <tspan
       id="tspan2" />
  </text>
  <rect
     style="fill:currentColor"
     id="rect6"
     ry="0.1"
     height="0.2"
     width="1.9743"
     y="9.3619003"
     x="26.021597" />
  <line
     style="stroke:currentColor;stroke-width:0.1;stroke-linecap:round;stroke-linejoin:round"
     id="line8"
     y2="14.4619"
     x2="62.013596"
     y1="14.4619"
     x1="12.851797" />
  <line
     style="stroke:currentColor;stroke-width:0.1;stroke-linecap:round;stroke-linejoin:round"
     id="line10"
     y2="13.4619"
     x2="62.013596"
     y1="13.4619"
     x1="12.851797" />
  <line
     style="stroke:currentColor;stroke-width:0.1;stroke-linecap:round;stroke-linejoin:round"
     id="line12"
     y2="12.4619"
     x2="62.013596"
     y1="12.4619"
     x1="12.851797" />
  <line
     style="stroke:currentColor;stroke-width:0.1;stroke-linecap:round;stroke-linejoin:round"
     id="line14"
     y2="11.4619"
     x2="62.013596"
     y1="11.4619"
     x1="12.851797" />
  <line
     style="stroke:currentColor;stroke-width:0.1;stroke-linecap:round;stroke-linejoin:round"
     id="line16"
     y2="10.4619"
     x2="62.013596"
     y1="10.4619"
     x1="12.851797" />
  <path
     style="fill:currentColor;stroke-width:0.004"
     id="path18"
     d="m 60.223697,11.9619 c 0,-0.124 0.1,-0.224 0.224,-0.224 0.124,0 0.224,0.1 0.224,0.224 0,0.124 -0.1,0.224 -0.224,0.224 -0.124,0 -0.224,-0.1 -0.224,-0.224 z" />
  <path
     style="fill:currentColor;stroke-width:0.004"
     id="path20"
     d="m 60.223697,12.9619 c 0,-0.124 0.1,-0.224 0.224,-0.224 0.124,0 0.224,0.1 0.224,0.224 0,0.124 -0.1,0.224 -0.224,0.224 -0.124,0 -0.224,-0.1 -0.224,-0.224 z" />
  <rect
     style="fill:currentColor"
     id="rect22"
     ry="0.0000"
     height="4"
     width="0.60000002"
     y="10.4619"
     x="61.463696" />
  <rect
     style="fill:currentColor"
     id="rect24"
     ry="0.0000"
     height="4"
     width="0.19"
     y="10.4619"
     x="60.973698" />
  <path
     style="fill:currentColor;stroke-width:0.004"
     id="path26"
     d="m 49.505497,10.9619 c 0,-0.124 0.1,-0.224 0.224,-0.224 0.124,0 0.224,0.1 0.224,0.224 0,0.124 -0.1,0.224 -0.224,0.224 -0.124,0 -0.224,-0.1 -0.224,-0.224 z" />
  <a
     transform="translate(-7.1151026,-3.8646001)"
     id="a30"
     style="color:inherit">
    <path
       style="fill:currentColor"
       id="path28"
       d="m 220,138 c 56,0 109,-29 109,-91 0,-72 -56,-121 -103,-149 -36,-21 -76,-36 -117,-36 -56,0 -109,29 -109,91 0,72 56,121 103,149 36,21 76,36 117,36 z"
       transform="matrix(0.004,0,0,-0.004,54.8544,14.8265)" />
  </a>
  <rect
     style="fill:currentColor"
     id="rect32"
     ry="0.039999999"
     height="2.4789"
     width="0.13"
     y="7.7951999"
     x="44.507397" />
  <path
     style="fill:currentColor;stroke-width:0.004"
     id="path34"
     d="m 45.087397,9.9618999 c 0,-0.124 0.1,-0.224 0.224,-0.224 0.124,0 0.224,0.1 0.224,0.224 0,0.1240001 -0.1,0.2240001 -0.224,0.2240001 -0.124,0 -0.224,-0.1 -0.224,-0.2240001 z" />
  <a
     transform="translate(-7.1151026,-3.8646001)"
     id="a38"
     style="color:inherit">
    <path
       style="fill:currentColor"
       id="path36"
       d="m 220,138 c 56,0 109,-29 109,-91 0,-72 -56,-121 -103,-149 -36,-21 -76,-36 -117,-36 -56,0 -109,29 -109,91 0,72 56,121 103,149 36,21 76,36 117,36 z"
       transform="matrix(0.004,0,0,-0.004,50.4363,14.3265)" />
  </a>
  <a
     transform="translate(-7.1151026,-3.8646001)"
     id="a62"
     style="color:inherit">
    <text
       style="font-size:2.61630011px;font-family:'Century Schoolbook L';text-anchor:start;fill:currentColor"
       id="text42"
       font-size="2.6163"
       transform="translate(50.4363,10.0326)">
      <tspan
         id="tspan40">E</tspan>
    </text>
    <text
       style="font-size:2.61630011px;font-family:'Century Schoolbook L';text-anchor:start;fill:currentColor"
       id="text46"
       font-size="2.6163"
       transform="translate(52.3142,10.0326)">
      <tspan
         id="tspan44" />
    </text>
    <text
       style="font-size:1.85000002px;font-family:'Century Schoolbook L';text-anchor:start;fill:currentColor"
       id="text50"
       font-size="1.8500"
       transform="translate(52.3142,8.5326)">
      <tspan
         id="tspan48">o</tspan>
    </text>
    <text
       style="font-size:2.61630011px;font-family:'Century Schoolbook L';text-anchor:start;fill:currentColor"
       id="text54"
       font-size="2.6163"
       transform="translate(53.2361,10.0326)">
      <tspan
         id="tspan52">/</tspan>
    </text>
    <text
       style="font-size:2.61630011px;font-family:'Century Schoolbook L';text-anchor:start;fill:currentColor"
       id="text58"
       font-size="2.6163"
       transform="translate(53.9531,10.0326)">
      <tspan
         id="tspan56">B</tspan>
    </text>
    <path
       style="fill:currentColor"
       id="path60"
       d="m 27,41 -1,-66 v -11 c 0,-22 1,-44 4,-66 45,38 93,80 93,139 0,33 -14,67 -43,67 C 49,104 28,74 27,41 Z m -42,-179 -12,595 c 8,5 18,8 27,8 9,0 19,-3 27,-8 L 20,112 c 25,21 58,34 91,34 52,0 89,-48 89,-102 0,-80 -86,-117 -147,-169 -15,-13 -24,-38 -45,-38 -13,0 -23,11 -23,25 z"
       transform="matrix(0.0042,0,0,-0.0042,56.0528,9.7326)" />
  </a>
  <rect
     style="fill:currentColor"
     id="rect64"
     ry="0.039999999"
     height="2.8122001"
     width="0.13"
     y="8.4618998"
     x="39.839298" />
  <path
     style="fill:currentColor;stroke-width:0.004"
     id="path66"
     d="m 40.419297,10.9619 c 0,-0.124 0.1,-0.224 0.224,-0.224 0.124,0 0.224,0.1 0.224,0.224 0,0.124 -0.1,0.224 -0.224,0.224 -0.124,0 -0.224,-0.1 -0.224,-0.224 z" />
  <a
     transform="translate(-7.1151026,-3.8646001)"
     id="a70"
     style="color:inherit">
    <path
       style="fill:currentColor"
       id="path68"
       d="m 220,138 c 56,0 109,-29 109,-91 0,-72 -56,-121 -103,-149 -36,-21 -76,-36 -117,-36 -56,0 -109,29 -109,91 0,72 56,121 103,149 36,21 76,36 117,36 z"
       transform="matrix(0.004,0,0,-0.004,45.7682,15.3265)" />
  </a>
  <rect
     style="fill:currentColor"
     id="rect72"
     ry="0.039999999"
     height="2.6454999"
     width="0.13"
     y="8.1286001"
     x="35.421097" />
  <path
     style="fill:currentColor;stroke-width:0.004"
     id="path74"
     d="m 36.001097,10.9619 c 0,-0.124 0.1,-0.224 0.224,-0.224 0.124,0 0.224,0.1 0.224,0.224 0,0.124 -0.1,0.224 -0.224,0.224 -0.124,0 -0.224,-0.1 -0.224,-0.224 z" />
  <a
     transform="translate(-7.1151026,-3.8646001)"
     id="a78"
     style="color:inherit">
    <path
       style="fill:currentColor"
       id="path76"
       d="m 220,138 c 56,0 109,-29 109,-91 0,-72 -56,-121 -103,-149 -36,-21 -76,-36 -117,-36 -56,0 -109,29 -109,91 0,72 56,121 103,149 36,21 76,36 117,36 z"
       transform="matrix(0.004,0,0,-0.004,41.3501,14.8265)" />
  </a>
  <a
     transform="translate(-7.1151026,-3.8646001)"
     id="a82"
     style="color:inherit">
    <path
       style="fill:currentColor;stroke:currentColor;stroke-width:0.08;stroke-linecap:round;stroke-linejoin:round"
       id="path80"
       d="m 0.57681067,-5.050006 c 0.57655713,-0.8011355 1.82351303,-1.0362158 2.65219203,-0.5 -0.8064479,-0.418293 -2.0534037,-0.1832128 -2.65219203,0.5 z"
       transform="translate(30.8135,16.3265)" />
  </a>
  <rect
     style="fill:currentColor"
     id="rect84"
     ry="0.039999999"
     height="2.6454999"
     width="0.13"
     y="8.1286001"
     x="48.925499" />
  <rect
     style="fill:currentColor"
     id="rect86"
     ry="0.039999999"
     height="2.4789"
     width="0.13"
     y="7.7951999"
     x="57.693699" />
  <a
     transform="translate(-7.1151026,-3.8646001)"
     id="a90"
     style="color:inherit">
    <path
       style="fill:currentColor"
       id="path88"
       d="m 220,138 c 56,0 109,-29 109,-91 0,-72 -56,-121 -103,-149 -36,-21 -76,-36 -117,-36 -56,0 -109,29 -109,91 0,72 56,121 103,149 36,21 76,36 117,36 z"
       transform="matrix(0.004,0,0,-0.004,63.6226,14.3265)" />
  </a>
  <rect
     style="fill:currentColor"
     id="rect92"
     ry="0.039999999"
     height="2.3122001"
     width="0.13"
     y="7.4618998"
     x="53.593697" />
  <a
     transform="translate(-7.1151026,-3.8646001)"
     id="a96"
     style="color:inherit">
    <path
       style="fill:currentColor"
       id="path94"
       d="m 220,138 c 56,0 109,-29 109,-91 0,-72 -56,-121 -103,-149 -36,-21 -76,-36 -117,-36 -56,0 -109,29 -109,91 0,72 56,121 103,149 36,21 76,36 117,36 z"
       transform="matrix(0.004,0,0,-0.004,59.5226,13.8265)" />
  </a>
  <rect
     style="fill:currentColor"
     id="rect98"
     ry="0.039999999"
     height="2.9789"
     width="0.13"
     y="13.1497"
     x="23.698397" />
  <path
     style="fill:currentColor;stroke-width:0.004"
     id="path100"
     d="m 25.464597,12.9619 c 0,-0.124 0.1,-0.224 0.224,-0.224 0.124,0 0.224,0.1 0.224,0.224 0,0.124 -0.1,0.224 -0.224,0.224 -0.124,0 -0.224,-0.1 -0.224,-0.224 z" />
  <path
     style="fill:currentColor;stroke-width:0.004"
     id="path102"
     d="m 25.014597,7.0018999 v 1 h -0.064 v -1 z m 0,0 c 0,0.792 0.836,1.34 0.836,2.132 0,0.284 -0.064,0.564 -0.168,0.828 -0.02,0.032 -0.048,0.048 -0.076,0.048 -0.052,0 -0.104,-0.044 -0.092,-0.1080004 0.104,-0.244 0.168,-0.504 0.168,-0.768 0,-0.416 -0.38,-0.832 -0.668,-1.132 z" />
  <rect
     style="fill:currentColor"
     id="rect104"
     ry="0.039999999"
     height="2.8122001"
     width="0.13"
     y="6.9618998"
     x="24.884598" />
  <a
     transform="translate(-7.1151026,-3.8646001)"
     id="a114"
     style="color:inherit">
    <rect
       style="fill:currentColor"
       id="rect106"
       ry="0.019300001"
       height="2.5113001"
       width="0.1158"
       y="-2.6726999"
       x="1.0563"
       transform="translate(26.2869,6.5373)" />
    <path
       style="fill:currentColor"
       id="path108"
       d="m 217,139 c 57,0 112,-31 112,-94 0,-72 -55,-121 -102,-149 -35,-21 -74,-35 -115,-35 -57,0 -112,31 -112,94 0,72 55,121 102,149 35,21 74,35 115,35 z"
       transform="matrix(0.0036,0,0,-0.0036,26.2869,6.5373)" />
    <text
       style="font-size:2.20009995px;font-family:'Century Schoolbook L';text-anchor:start;fill:currentColor"
       id="text112"
       font-size="2.2001"
       transform="translate(27.459,7.0309)">
      <tspan
         id="tspan110">= 185</tspan>
    </text>
  </a>
  <path
     style="fill:currentColor;stroke-width:0.004"
     id="path116"
     d="m 20.416797,14.0084 h 0.468 c 0,0.192 0.108,0.376 0.288,0.376 0.032,0 0.048,0.02 0.048,0.044 0,0.024 -0.016,0.048 -0.048,0.048 -0.176,0 -0.348,-0.052 -0.524,-0.052 -0.176,0 -0.348,0.052 -0.524,0.052 -0.032,0 -0.048,-0.024 -0.048,-0.048 0,-0.024 0.016,-0.044 0.048,-0.044 0.18,0 0.292,-0.184 0.292,-0.376 z m 0.032,-0.76 c 0.088,-0.056 0.176,-0.116 0.24,-0.2 0.044,-0.06 0.076,-0.132 0.108,-0.2 0.008,-0.016 0.02,-0.024 0.036,-0.024 0.024,0 0.052,0.02 0.052,0.056 v 0.98 h 0.288 c 0.04,0 0.06,0.028 0.06,0.056 0,0.028 -0.02,0.06 -0.06,0.06 h -0.288 v 0.032 h -0.468 v -0.032 h -0.668 c -0.092,0 -0.124,-0.056 -0.124,-0.092 0,-0.012 0.004,-0.02 0.008,-0.024 0.32,-0.372 0.552,-0.828 0.552,-1.32 0,-0.04 0.028,-0.076 0.064,-0.064 0.092,0.028 0.188,0.052 0.284,0.052 0.096,0 0.192,-0.024 0.284,-0.052 0.056,-0.016 0.092,0.036 0.068,0.064 l -1.136,1.32 h 0.668 v -0.524 c 0,-0.032 0.004,-0.068 0.032,-0.088 z" />
  <g
     id="g122"
     transform="translate(19.171797,12.4619)">
    <path
       style="fill:currentColor"
       id="path118"
       d="m 175,487 c 18,0 58,31 58,-3 V 117 c 0,-48 28,-94 73,-94 8,0 12,-5 12,-11 C 318,6 314,0 306,0 262,0 219,13 175,13 131,13 88,0 44,0 36,0 32,6 32,12 c 0,6 4,11 12,11 45,0 73,46 73,94 v 245 c 0,12 -9,19 -17,19 -4,0 -8,-3 -10,-7 L 26,238 c -3,-6 -7,-9 -12,-9 -8,0 -16,6 -16,14 0,2 1,5 2,7 l 117,250 c 3,6 10,3 16,0 13,-6 27,-13 42,-13 z"
       transform="scale(0.004,-0.004)" />
    <path
       style="fill:currentColor"
       id="path120"
       d="m 175,487 c 18,0 58,31 58,-3 V 117 c 0,-48 28,-94 73,-94 8,0 12,-5 12,-11 C 318,6 314,0 306,0 262,0 219,13 175,13 131,13 88,0 44,0 36,0 32,6 32,12 c 0,6 4,11 12,11 45,0 73,46 73,94 v 245 c 0,12 -9,19 -17,19 -4,0 -8,-3 -10,-7 L 26,238 c -3,-6 -7,-9 -12,-9 -8,0 -16,6 -16,14 0,2 1,5 2,7 l 117,250 c 3,6 10,3 16,0 13,-6 27,-13 42,-13 z"
       transform="matrix(0.004,0,0,-0.004,1.2633,0)" />
  </g>
  <a
     transform="translate(-7.1151026,-3.8646001)"
     id="a126"
     style="color:inherit">
    <path
       style="fill:currentColor"
       id="path124"
       d="m 27,41 -1,-66 v -11 c 0,-22 1,-44 4,-66 45,38 93,80 93,139 0,33 -14,67 -43,67 C 49,104 28,74 27,41 Z m -42,-179 -12,595 c 8,5 18,8 27,8 9,0 19,-3 27,-8 L 20,112 c 25,21 58,34 91,34 52,0 89,-48 89,-102 0,-80 -86,-117 -147,-169 -15,-13 -24,-38 -45,-38 -13,0 -23,11 -23,25 z"
       transform="matrix(0.004,0,0,-0.004,24.3369,16.3265)" />
  </a>
  <path
     style="fill:currentColor;stroke-width:0.004"
     id="path128"
     d="m 14.665797,16.0019 h -0.024 c -0.432,0 -0.78,-0.352 -0.78,-0.788 0,-0.232 0.212,-0.412 0.448,-0.412 0.216,0 0.38,0.188 0.38,0.412 0,0.208 -0.172,0.38 -0.38,0.38 -0.044,0 -0.084,-0.008 -0.124,-0.024 0.104,0.156 0.272,0.26 0.468,0.26 h 0.016 z m 0.78,-1.728 c 0.272,-0.096 0.452,-0.38 0.452,-0.656 0,-0.36 -0.264,-0.716 -0.692,-0.76 0.096,0.464 0.184,0.924 0.24,1.416 z m -1.548,-0.924 c 0,0.54 0.516,0.988 1.056,0.988 0.112,0 0.22,-0.008 0.328,-0.024 -0.056,-0.508 -0.148,-0.98 -0.252,-1.456 -0.316,0.032 -0.496,0.244 -0.496,0.476 0,0.176 0.1,0.364 0.324,0.492 0.02,0.02 0.028,0.04 0.028,0.06 0,0.044 -0.04,0.088 -0.088,0.088 -0.012,0 -0.024,-0.004 -0.036,-0.008 -0.32,-0.172 -0.468,-0.46 -0.468,-0.74 0,-0.352 0.232,-0.696 0.64,-0.788 -0.056,-0.232 -0.116,-0.468 -0.184,-0.7 -0.428,0.484 -0.852,0.972 -0.852,1.612 z m 1.044,1.16 c -0.752,0 -1.332,-0.688 -1.332,-1.496 0,-0.708 0.524,-1.224 0.992,-1.764 -0.076,-0.248 -0.148,-0.5 -0.18,-0.76 -0.024,-0.208 -0.028,-0.416 -0.028,-0.6240001 0,-0.46 0.22,-0.896 0.596,-1.168 0.024,-0.02 0.056,-0.02 0.08,0 0.284,0.336 0.532,0.98 0.532,1.4320001 0,0.572 -0.344,1.02 -0.72,1.456 0.084,0.272 0.156,0.552 0.224,0.828 0.016,0 0.036,-0.004 0.052,-0.004 0.62,0 1.024,0.512 1.024,1.044 0,0.304 -0.132,0.616 -0.428,0.84 -0.088,0.068 -0.188,0.112 -0.292,0.144 0.012,0.14 0.02,0.28 0.02,0.42 0,0.076 -0.004,0.156 -0.008,0.232 -0.028,0.476 -0.352,0.9 -0.808,0.912 l 0.004,-0.172 c 0.372,-0.008 0.612,-0.368 0.636,-0.764 0.004,-0.072 0.008,-0.148 0.008,-0.22 0,-0.124 -0.004,-0.244 -0.016,-0.368 -0.116,0.02 -0.232,0.032 -0.356,0.032 z m 0.372,-4.7120001 c 0,-0.22 -0.016,-0.316 -0.08,-0.516 -0.396,0.192 -0.648,0.596 -0.648,1.0360001 0,0.296 0.072,0.532 0.144,0.776 0.32,-0.388 0.584,-0.792 0.584,-1.2960001 z" />
  <a
     transform="translate(-7.1151026,-3.8646001)"
     id="a132"
     style="color:inherit">
    <path
       style="fill:currentColor"
       id="path130"
       d="m 220,138 c 56,0 109,-29 109,-91 0,-72 -56,-121 -103,-149 -36,-21 -76,-36 -117,-36 -56,0 -109,29 -109,91 0,72 56,121 103,149 36,21 76,36 117,36 z"
       transform="matrix(0.004,0,0,-0.004,30.8135,16.8265)" />
  </a>
  <a
     transform="translate(-7.1151026,-3.8646001)"
     id="a136"
     style="color:inherit">
    <path
       style="fill:currentColor"
       id="path134"
       d="m 220,138 c 56,0 109,-29 109,-91 0,-72 -56,-121 -103,-149 -36,-21 -76,-36 -117,-36 -56,0 -109,29 -109,91 0,72 56,121 103,149 36,21 76,36 117,36 z"
       transform="matrix(0.004,0,0,-0.004,30.8135,13.8265)" />
  </a>
  <a
     transform="translate(-7.1151026,-3.8646001)"
     id="a158"
     style="color:inherit">
    <text
       style="font-size:2.61630011px;font-family:'Century Schoolbook L';text-anchor:start;fill:currentColor"
       id="text140"
       font-size="2.6163"
       transform="translate(30.8135,10.0326)">
      <tspan
         id="tspan138">A</tspan>
    </text>
    <text
       style="font-size:2.61630011px;font-family:'Century Schoolbook L';text-anchor:start;fill:currentColor"
       id="text144"
       font-size="2.6163"
       transform="translate(32.6914,10.0326)">
      <tspan
         id="tspan142" />
    </text>
    <text
       style="font-size:2.61630011px;font-family:'Century Schoolbook L';text-anchor:start;fill:currentColor"
       id="text148"
       font-size="2.6163"
       transform="translate(32.6914,10.0326)">
      <tspan
         id="tspan146">m</tspan>
    </text>
    <text
       style="font-size:1.85000002px;font-family:'Century Schoolbook L';text-anchor:start;fill:currentColor"
       id="text152"
       font-size="1.8500"
       transform="translate(35.0132,8.5326)">
      <tspan
         id="tspan150" />
    </text>
    <text
       style="font-size:1.85000002px;font-family:'Century Schoolbook L';text-anchor:start;fill:currentColor"
       id="text156"
       font-size="1.8500"
       transform="translate(35.0132,8.5326)">
      <tspan
         id="tspan154">7</tspan>
    </text>
  </a>
  <text
     y="13.2643"
     x="-0.0572026"
     style="font-size:2.20009995px;font-family:'Century Schoolbook L';text-anchor:start;fill:currentColor"
     id="text162"
     font-size="2.2001">
    <tspan
       id="tspan160">Reduction</tspan>
  </text>
  <a
     transform="translate(-7.1151026,-3.8646001)"
     id="a166"
     style="color:inherit">
    <path
       style="fill:currentColor"
       id="path164"
       d="m 220,138 c 56,0 109,-29 109,-91 0,-72 -56,-121 -103,-149 -36,-21 -76,-36 -117,-36 -56,0 -109,29 -109,91 0,72 56,121 103,149 36,21 76,36 117,36 z"
       transform="matrix(0.004,0,0,-0.004,36.9319,14.8265)" />
  </a>
  <rect
     style="fill:currentColor"
     id="rect168"
     ry="0.039999999"
     height="3.3122001"
     width="0.13"
     y="12.1497"
     x="29.816797" />
  <path
     style="fill:currentColor;stroke-width:0.004"
     id="path170"
     d="m 31.582997,11.9619 c 0,-0.124 0.1,-0.224 0.224,-0.224 0.124,0 0.224,0.1 0.224,0.224 0,0.124 -0.1,0.224 -0.224,0.224 -0.124,0 -0.224,-0.1 -0.224,-0.224 z" />
  <rect
     style="fill:currentColor"
     id="rect172"
     ry="0.039999999"
     height="2.6454999"
     width="0.13"
     y="8.1286001"
     x="31.002998" />
  <path
     style="fill:currentColor;stroke-width:0.004"
     id="path174"
     d="m 31.582997,10.9619 c 0,-0.124 0.1,-0.224 0.224,-0.224 0.124,0 0.224,0.1 0.224,0.224 0,0.124 -0.1,0.224 -0.224,0.224 -0.124,0 -0.224,-0.1 -0.224,-0.224 z" />
  <a
     transform="translate(-7.1151026,-3.8646001)"
     id="a178"
     style="color:inherit">
    <path
       style="fill:currentColor"
       id="path176"
       d="m 220,138 c 56,0 109,-29 109,-91 0,-72 -56,-121 -103,-149 -36,-21 -76,-36 -117,-36 -56,0 -109,29 -109,91 0,72 56,121 103,149 36,21 76,36 117,36 z"
       transform="matrix(0.004,0,0,-0.004,36.9319,15.8265)" />
  </a>
  <rect
     style="fill:currentColor"
     id="rect180"
     ry="0.039999999"
     height="2.3122001"
     width="0.13"
     y="6.9618998"
     x="27.536797" />
  <a
     transform="translate(-7.1151026,-3.8646001)"
     id="a184"
     style="color:inherit">
    <path
       style="fill:currentColor"
       id="path182"
       d="m 220,138 c 56,0 109,-29 109,-91 0,-72 -56,-121 -103,-149 -36,-21 -76,-36 -117,-36 -56,0 -109,29 -109,91 0,72 56,121 103,149 36,21 76,36 117,36 z"
       transform="matrix(0.004,0,0,-0.004,33.4657,13.3265)" />
  </a>
  <text
     y="161.73039"
     x="52.635696"
     style="font-size:2.20009995px;font-family:'Century Schoolbook L';text-anchor:start;fill:currentColor"
     id="text188"
     font-size="2.2001">
    <tspan
       id="tspan186" />
  </text>
</svg>
