<?xml version="1.0" encoding="UTF-8" standalone="no"?>
<svg
   xmlns:dc="http://purl.org/dc/elements/1.1/"
   xmlns:cc="http://creativecommons.org/ns#"
   xmlns:rdf="http://www.w3.org/1999/02/22-rdf-syntax-ns#"
   xmlns:svg="http://www.w3.org/2000/svg"
   xmlns="http://www.w3.org/2000/svg"
   xmlns:sodipodi="http://sodipodi.sourceforge.net/DTD/sodipodi-0.dtd"
   xmlns:inkscape="http://www.inkscape.org/namespaces/inkscape"
   sodipodi:docname="eartifacts.svg"
   inkscape:version="1.0beta2 (2b71d25, 2019-12-03)"
   id="svg8"
   version="1.1"
   viewBox="0 0 135.46667 135.46667"
   height="512"
   width="512">
  <defs
     id="defs2">
    <inkscape:perspective
       id="perspective10"
       inkscape:persp3d-origin="67.733335 : 45.155557 : 1"
       inkscape:vp_z="135.46667 : 67.733335 : 1"
       inkscape:vp_y="0 : 1000 : 0"
       inkscape:vp_x="0 : 67.733335 : 1"
       sodipodi:type="inkscape:persp3d" />
  </defs>
  <sodipodi:namedview
     inkscape:window-maximized="1"
     inkscape:window-y="0"
     inkscape:window-x="0"
     inkscape:window-height="1050"
     inkscape:window-width="1920"
     inkscape:snap-nodes="false"
     inkscape:pagecheckerboard="true"
     width="512px"
     units="px"
     showgrid="false"
     inkscape:document-rotation="0"
     inkscape:current-layer="layer1"
     inkscape:document-units="mm"
     inkscape:cy="222.32333"
     inkscape:cx="259.89427"
     inkscape:zoom="1.4142136"
     inkscape:pageshadow="2"
     inkscape:pageopacity="0.0"
     borderopacity="1.0"
     bordercolor="#666666"
     pagecolor="#ffffff"
     id="base" />
  <metadata
     id="metadata5">
    <rdf:RDF>
      <cc:Work
         rdf:about="">
        <dc:format>image/svg+xml</dc:format>
        <dc:type
           rdf:resource="http://purl.org/dc/dcmitype/StillImage" />
        <dc:title />
      </cc:Work>
    </rdf:RDF>
  </metadata>
  <g
     id="layer1"
     inkscape:groupmode="layer"
     inkscape:label="Layer 1">
    <rect
       style="fill:none;stroke:#ee88ee;stroke-width:6.35;stroke-miterlimit:4;stroke-dasharray:none;stroke-opacity:1"
       id="rect851-3"
       width="89.795578"
       height="89.795578"
       x="35.184956"
       y="13.254972" />
    <path
       inkscape:connector-curvature="0"
       id="path872"
       d="M 8.3563408,30.525803 33.835645,12.680465 v 0 0"
       style="fill:none;stroke:#ee88ee;stroke-width:6.35;stroke-linecap:butt;stroke-linejoin:miter;stroke-miterlimit:4;stroke-dasharray:none;stroke-opacity:1" />
    <path
       style="fill:none;stroke:#ee88ee;stroke-width:6.35;stroke-linecap:butt;stroke-linejoin:miter;stroke-miterlimit:4;stroke-dasharray:none;stroke-opacity:1"
       d="m 100.82888,30.580398 25.4793,-17.845338 v 0 0"
       id="path872-6"
       inkscape:connector-curvature="0" />
    <path
       style="fill:none;stroke:#ee88ee;stroke-width:6.35;stroke-linecap:butt;stroke-linejoin:miter;stroke-miterlimit:4;stroke-dasharray:none;stroke-opacity:1"
       d="m 100.85578,121.47628 25.47931,-17.84534 v 0 0"
       id="path872-7"
       inkscape:connector-curvature="0" />
    <path
       inkscape:connector-curvature="0"
       id="path872-7-5"
       d="M 8.3675664,121.46655 33.846878,103.62121 v 0 0"
       style="fill:none;stroke:#ee88ee;stroke-width:6.35;stroke-linecap:butt;stroke-linejoin:miter;stroke-miterlimit:4;stroke-dasharray:none;stroke-opacity:1" />
    <g
       transform="matrix(0.93279119,0,0,0.93279119,20.565747,21.059184)"
       id="g1120"
       style="stroke-width:3.40376285;stroke-miterlimit:4;stroke-dasharray:none;stroke:#eeeeee;stroke-opacity:1;stroke-linejoin:round;stroke-linecap:round;paint-order:stroke fill markers;fill:#111111;fill-opacity:1">
      <path
         inkscape:connector-curvature="0"
         d="M 80.732,35.621 C 79.408,18.164 66.172,5 49.944,5 32.964,5 19.149,18.823 19.149,35.813 c 0,1.404 1.142,2.546 2.546,2.546 1.404,0 2.546,-1.142 2.546,-2.546 0,-14.183 11.53,-25.721 25.703,-25.721 13.758,0 24.569,10.899 25.71,25.914 0.896,11.811 -4.445,17.135 -10.629,23.298 -4.435,4.421 -9.46,9.429 -12.473,17.271 -3.164,8.231 -6.372,13.332 -12.579,13.332 -6.841,0 -12.408,-5.57 -12.408,-12.418 0,-1.405 -1.142,-2.547 -2.546,-2.547 -1.404,0 -2.546,1.142 -2.546,2.547 0,9.656 7.85,17.511 17.5,17.511 9.625,0 14.019,-7.978 17.333,-16.598 2.626,-6.83 7.043,-11.233 11.313,-15.489 6.783,-6.761 13.187,-13.145 12.113,-27.292 z"
         id="path1116"
         style="stroke-width:3.40376285;stroke-miterlimit:4;stroke-dasharray:none;stroke:#eeeeee;stroke-opacity:1;stroke-linejoin:round;stroke-linecap:round;paint-order:stroke fill markers;fill:#111111;fill-opacity:1" />
      <path
         inkscape:connector-curvature="0"
         d="m 34.078,64.151 c -1.463,0 -2.653,1.19 -2.653,2.653 0,1.463 1.19,2.653 2.653,2.653 8.29,0 15.035,-6.746 15.035,-15.036 0,-7.294 -5.271,-13.518 -12.382,-14.788 v -4.669 c 0,-7.316 5.951,-13.267 13.267,-13.267 7.316,0 13.267,5.951 13.267,13.267 v 1.769 c 0,1.463 1.19,2.653 2.653,2.653 1.464,0 2.653,-1.19 2.653,-2.653 v -1.769 c 0,-10.241 -8.331,-18.574 -18.573,-18.574 -10.242,0 -18.573,8.333 -18.573,18.574 v 7.076 c 0,1.463 1.19,2.653 2.653,2.653 5.364,0 9.729,4.364 9.729,9.729 0,5.365 -4.365,9.729 -9.729,9.729 z"
         id="path1118"
         style="stroke-width:3.40376285;stroke-miterlimit:4;stroke-dasharray:none;stroke:#eeeeee;stroke-opacity:1;stroke-linejoin:round;stroke-linecap:round;paint-order:stroke fill markers;fill:#111111;fill-opacity:1" />
    </g>
    <rect
       y="31.100309"
       x="9.7056503"
       height="89.795578"
       width="89.795578"
       id="rect851"
       style="fill:none;stroke:#ee88ee;stroke-width:6.35;stroke-miterlimit:4;stroke-dasharray:none;stroke-opacity:1" />
  </g>
</svg>
