<svg version="1.2" width="430.004" height="122.41" viewBox="0 0 64.742 18.43" id="svg288" xmlns="http://www.w3.org/2000/svg">
  <style type="text/css" id="style2">
    tspan{white-space:pre}
  </style>
  <g transform="translate(.285 10.626)" id="g6">
    <rect x="27.364" y="-.1" width="1.956" height=".2" ry=".1" fill="currentColor" id="rect4"/>
  </g>
  <g transform="translate(14.511 15.626)" id="g10">
    <path stroke-linejoin="round" stroke-linecap="round" stroke-width=".1" stroke="currentColor" id="line8" d="M.05 0h48.993"/>
  </g>
  <g transform="translate(14.511 14.626)" id="g14">
    <path stroke-linejoin="round" stroke-linecap="round" stroke-width=".1" stroke="currentColor" id="line12" d="M.05 0h48.993"/>
  </g>
  <g transform="translate(14.511 13.626)" id="g18">
    <path stroke-linejoin="round" stroke-linecap="round" stroke-width=".1" stroke="currentColor" id="line16" d="M.05 0h48.993"/>
  </g>
  <g transform="translate(14.511 12.626)" id="g22">
    <path stroke-linejoin="round" stroke-linecap="round" stroke-width=".1" stroke="currentColor" id="line20" d="M.05 0h48.993"/>
  </g>
  <g transform="translate(14.511 11.626)" id="g26">
    <path stroke-linejoin="round" stroke-linecap="round" stroke-width=".1" stroke="currentColor" id="line24" d="M.05 0h48.993"/>
  </g>
  <g transform="translate(61.764 13.126)" id="g30">
    <path transform="scale(.004 -.004)" d="M0 0c0 31 25 56 56 56s56-25 56-56-25-56-56-56S0-31 0 0Z" fill="currentColor" id="path28"/>
  </g>
  <g transform="translate(61.764 14.126)" id="g34">
    <path transform="scale(.004 -.004)" d="M0 0c0 31 25 56 56 56s56-25 56-56-25-56-56-56S0-31 0 0Z" fill="currentColor" id="path32"/>
  </g>
  <g transform="translate(63.004 13.626)" id="g38">
    <rect x="0" y="-2" width=".6" height="4" ry="0" fill="currentColor" id="rect36"/>
  </g>
  <g transform="translate(62.514 13.626)" id="g42">
    <rect x="0" y="-2" width=".19" height="4" ry="0" fill="currentColor" id="rect40"/>
  </g>
  <g transform="translate(51.058 12.126)" id="g46">
    <path transform="scale(.004 -.004)" d="M0 0c0 31 25 56 56 56s56-25 56-56-25-56-56-56S0-31 0 0Z" fill="currentColor" id="path44"/>
  </g>
  <a style="color:inherit" id="a52" transform="translate(-5.406 -2.707)">
    <g transform="translate(54.71 14.833)" id="g50">
      <path transform="scale(.004 -.004)" d="M218 136c55 0 108-28 108-89 0-71-55-121-102-149-35-21-75-34-116-34C53-136 0-108 0-47 0 24 55 74 102 102c35 21 75 34 116 34z" fill="currentColor" id="path48"/>
    </g>
  </a>
  <g transform="translate(46.137 13.626)" id="g56">
    <rect x="-.065" y="-4.667" width=".13" height="2.481" ry=".04" fill="currentColor" id="rect54"/>
  </g>
  <g transform="translate(46.652 11.126)" id="g60">
    <path transform="scale(.004 -.004)" d="M0 0c0 31 25 56 56 56s56-25 56-56-25-56-56-56S0-31 0 0Z" fill="currentColor" id="path58"/>
  </g>
  <a style="color:inherit" id="a66" transform="translate(-5.406 -2.707)">
    <g transform="translate(50.304 14.333)" id="g64">
      <path transform="scale(.004 -.004)" d="M218 136c55 0 108-28 108-89 0-71-55-121-102-149-35-21-75-34-116-34C53-136 0-108 0-47 0 24 55 74 102 102c35 21 75 34 116 34z" fill="currentColor" id="path62"/>
    </g>
  </a>
  <a style="color:inherit" id="a96" transform="translate(-5.406 -2.707)">
    <g transform="translate(50.304 10.056)" id="g72">
      <text font-family="serif" font-size="2.616" text-anchor="start" fill="currentColor" id="text70"><tspan id="tspan68">E</tspan></text>
    </g>
    <g transform="translate(52.216 10.056)" id="g78">
      <text font-family="serif" font-size="3.296" text-anchor="start" fill="currentColor" id="text76"><tspan id="tspan74">°</tspan></text>
    </g>
    <g transform="translate(53.855 10.056)" id="g84">
      <text font-family="serif" font-size="2.616" text-anchor="start" fill="currentColor" id="text82"><tspan id="tspan80">⧸</tspan></text>
    </g>
    <g transform="translate(54.913 10.056)" id="g90">
      <text font-family="serif" font-size="2.616" text-anchor="start" fill="currentColor" id="text88"><tspan id="tspan86">B</tspan></text>
    </g>
    <g transform="translate(57.047 9.756)" id="g94">
      <path transform="scale(.0042 -.0042)" d="m27 41-1-66v-11c0-22 1-44 4-66 45 38 93 80 93 139 0 33-14 67-43 67-31 0-52-30-53-63Zm-42-179-12 595c8 5 18 8 27 8s19-3 27-8l-7-345c25 21 58 34 91 34 52 0 89-48 89-102 0-80-86-117-147-169-15-13-24-38-45-38-13 0-23 11-23 25z" fill="currentColor" id="path92"/>
    </g>
  </a>
  <g transform="translate(41.48 13.626)" id="g100">
    <rect x="-.065" y="-4" width=".13" height="2.814" ry=".04" fill="currentColor" id="rect98"/>
  </g>
  <g transform="translate(41.996 12.126)" id="g104">
    <path transform="scale(.004 -.004)" d="M0 0c0 31 25 56 56 56s56-25 56-56-25-56-56-56S0-31 0 0Z" fill="currentColor" id="path102"/>
  </g>
  <a style="color:inherit" id="a110" transform="translate(-5.406 -2.707)">
    <g transform="translate(45.648 15.333)" id="g108">
      <path transform="scale(.004 -.004)" d="M218 136c55 0 108-28 108-89 0-71-55-121-102-149-35-21-75-34-116-34C53-136 0-108 0-47 0 24 55 74 102 102c35 21 75 34 116 34z" fill="currentColor" id="path106"/>
    </g>
  </a>
  <g transform="translate(37.075 13.626)" id="g114">
    <rect x="-.065" y="-4.333" width=".13" height="2.647" ry=".04" fill="currentColor" id="rect112"/>
  </g>
  <g transform="translate(37.59 12.126)" id="g118">
    <path transform="scale(.004 -.004)" d="M0 0c0 31 25 56 56 56s56-25 56-56-25-56-56-56S0-31 0 0Z" fill="currentColor" id="path116"/>
  </g>
  <a style="color:inherit" id="a124" transform="translate(-5.406 -2.707)">
    <g transform="translate(41.241 14.833)" id="g122">
      <path transform="scale(.004 -.004)" d="M218 136c55 0 108-28 108-89 0-71-55-121-102-149-35-21-75-34-116-34C53-136 0-108 0-47 0 24 55 74 102 102c35 21 75 34 116 34z" fill="currentColor" id="path120"/>
    </g>
  </a>
  <a style="color:inherit" id="a130" transform="translate(-5.406 -2.707)">
    <g transform="translate(30.814 16.333)" id="g128">
      <path stroke-width=".08" stroke-linejoin="round" stroke-linecap="round" stroke="currentColor" fill="currentColor" d="M.569-5.045c.557-.785 1.757-1.019 2.567-.5v0c-.788-.4-1.987-.167-2.567.5Z" id="path126"/>
    </g>
  </a>
  <g transform="translate(50.543 13.626)" id="g134">
    <rect x="-.065" y="-4.333" width=".13" height="2.647" ry=".04" fill="currentColor" id="rect132"/>
  </g>
  <g transform="translate(59.3 13.626)" id="g138">
    <rect x="-.065" y="-4.667" width=".13" height="2.481" ry=".04" fill="currentColor" id="rect136"/>
  </g>
  <a style="color:inherit" id="a144" transform="translate(-5.406 -2.707)">
    <g transform="translate(63.466 14.333)" id="g142">
      <path transform="scale(.004 -.004)" d="M218 136c55 0 108-28 108-89 0-71-55-121-102-149-35-21-75-34-116-34C53-136 0-108 0-47 0 24 55 74 102 102c35 21 75 34 116 34z" fill="currentColor" id="path140"/>
    </g>
  </a>
  <g transform="translate(55.2 13.626)" id="g148">
    <rect x="-.065" y="-5" width=".13" height="2.314" ry=".04" fill="currentColor" id="rect146"/>
  </g>
  <a style="color:inherit" id="a154" transform="translate(-5.406 -2.707)">
    <g transform="translate(59.366 13.833)" id="g152">
      <path transform="scale(.004 -.004)" d="M218 136c55 0 108-28 108-89 0-71-55-121-102-149-35-21-75-34-116-34C53-136 0-108 0-47 0 24 55 74 102 102c35 21 75 34 116 34z" fill="currentColor" id="path150"/>
    </g>
  </a>
  <g transform="translate(25.473 13.626)" id="g158">
    <rect x="-.065" y=".686" width=".13" height="2.981" ry=".04" fill="currentColor" id="rect156"/>
  </g>
  <g transform="translate(27.162 14.126)" id="g162">
    <path transform="scale(.004 -.004)" d="M0 0c0 31 25 56 56 56s56-25 56-56-25-56-56-56S0-31 0 0Z" fill="currentColor" id="path160"/>
  </g>
  <g transform="translate(26.712 8.166)" id="g166">
    <path transform="scale(.004 -.004)" d="M0 0v-250h-16V0Zm0 0c0-197 207-336 207-533 0-71-15-141-41-207-5-8-13-12-20-12-13 0-26 11-23 27 26 61 42 126 42 192 0 103-94 208-165 283z" fill="currentColor" id="path164"/>
  </g>
  <g transform="translate(26.647 13.626)" id="g170">
    <rect x="-.065" y="-5.5" width=".13" height="2.814" ry=".04" fill="currentColor" id="rect168"/>
  </g>
  <a style="color:inherit" id="a186" transform="translate(-5.406 -2.707)">
    <g transform="translate(26.287 6.518)" id="g174">
      <rect x="1.045" y="-2.673" width=".116" height="2.513" ry=".019" fill="currentColor" id="rect172"/>
    </g>
    <g transform="translate(26.287 6.518)" id="g178">
      <path transform="scale(.0036 -.0036)" d="M215 137c57 0 111-29 111-92 0-71-54-120-101-148-35-21-74-34-114-34C54-137 0-108 0-45 0 26 54 75 101 103c35 21 74 34 114 34z" fill="currentColor" id="path176"/>
    </g>
    <g transform="translate(27.448 7.007)" id="g184">
      <text font-family="serif" font-size="2.2" text-anchor="start" fill="currentColor" id="text182"><tspan id="tspan180"> = 185</tspan></text>
    </g>
  </a>
  <a style="color:inherit" id="a200" transform="translate(-5.406 -2.707)">
    <g transform="translate(26.287 16.333)" id="g194">
      <g id="g192">
        <path transform="scale(.004 -.004)" d="M175 487c18 0 58 31 58-3V117c0-48 28-94 73-94 8 0 12-5 12-11s-4-12-12-12c-44 0-87 13-131 13S88 0 44 0c-8 0-12 6-12 12s4 11 12 11c45 0 73 46 73 94v245c0 12-9 19-17 19-4 0-8-3-10-7L26 238c-3-6-7-9-12-9-8 0-16 6-16 14 0 2 1 5 2 7l117 250c3 6 10 3 16 0 13-6 27-13 42-13z" fill="currentColor" id="path188"/>
        <path transform="matrix(.004 0 0 -.004 1.263 0)" d="M175 487c18 0 58 31 58-3V117c0-48 28-94 73-94 8 0 12-5 12-11s-4-12-12-12c-44 0-87 13-131 13S88 0 44 0c-8 0-12 6-12 12s4 11 12 11c45 0 73 46 73 94v245c0 12-9 19-17 19-4 0-8-3-10-7L26 238c-3-6-7-9-12-9-8 0-16 6-16 14 0 2 1 5 2 7l117 250c3 6 10 3 16 0 13-6 27-13 42-13z" fill="currentColor" id="path190"/>
      </g>
    </g>
    <g transform="translate(26.748 18.347)" id="g198">
      <path transform="scale(.004 -.004)" d="M196 117h117c0-48 27-94 72-94 8 0 12-5 12-11s-4-12-12-12c-44 0-87 13-131 13S167 0 123 0c-8 0-12 6-12 12s4 11 12 11c45 0 73 46 73 94zm8 190c22 14 44 29 60 50 11 15 19 33 27 50 2 4 5 6 9 6 6 0 13-5 13-14V154h72c10 0 15-7 15-14s-5-15-15-15h-72v-8H196v8H29c-23 0-31 14-31 23 0 3 1 5 2 6 80 93 138 207 138 330 0 10 7 19 16 16 23-7 47-13 71-13s48 6 71 13c14 4 23-9 17-16L29 154h167v131c0 8 1 17 8 22z" fill="currentColor" id="path196"/>
    </g>
  </a>
  <a style="color:inherit" id="a206" transform="translate(-5.406 -2.707)">
    <g transform="translate(24.337 16.333)" id="g204">
      <path transform="scale(.004 -.004)" d="m27 41-1-66v-11c0-22 1-44 4-66 45 38 93 80 93 139 0 33-14 67-43 67-31 0-52-30-53-63Zm-42-179-12 595c8 5 18 8 27 8s19-3 27-8l-7-345c25 21 58 34 91 34 52 0 89-48 89-102 0-80-86-117-147-169-15-13-24-38-45-38-13 0-23 11-23 25z" fill="currentColor" id="path202"/>
    </g>
  </a>
  <g transform="translate(15.311 14.626)" id="g210">
    <path transform="scale(.004 -.004)" d="M266-635h-6c-108 0-195 88-195 197 0 58 53 103 112 103 54 0 95-47 95-103 0-52-43-95-95-95-11 0-21 2-31 6 26-39 68-65 117-65h4zm195 432c68 24 113 95 113 164 0 90-66 179-173 190 24-116 46-231 60-354zM74 28c0-135 129-247 264-247 28 0 55 2 82 6-14 127-37 245-63 364-79-8-124-61-124-119 0-44 25-91 81-123 5-5 7-10 7-15 0-11-10-22-22-22-3 0-6 1-9 2C210-83 173-11 173 59c0 88 58 174 160 197-14 58-29 117-46 175C180 310 74 188 74 28Zm261-290C147-262 2-90 2 112c0 177 131 306 248 441-19 62-37 125-45 190-6 52-7 104-7 156 0 115 55 224 149 292 6 5 14 5 20 0 71-84 133-245 133-358 0-143-86-255-180-364 21-68 39-138 56-207 4 0 9 1 13 1 155 0 256-128 256-261 0-76-33-154-107-210-22-17-47-28-73-36 3-35 5-70 5-105 0-19-1-39-2-58-7-119-88-225-202-228l1 43c93 2 153 92 159 191 1 18 2 37 2 55 0 31-1 61-4 92-29-5-58-8-89-8zm93 1178c0 55-4 79-20 129-99-48-162-149-162-259 0-74 18-133 36-194 80 97 146 198 146 324z" fill="currentColor" id="path208"/>
  </g>
  <a style="color:inherit" id="a216" transform="translate(-5.406 -2.707)">
    <g transform="translate(30.814 16.833)" id="g214">
      <path transform="scale(.004 -.004)" d="M218 136c55 0 108-28 108-89 0-71-55-121-102-149-35-21-75-34-116-34C53-136 0-108 0-47 0 24 55 74 102 102c35 21 75 34 116 34z" fill="currentColor" id="path212"/>
    </g>
  </a>
  <a style="color:inherit" id="a222" transform="translate(-5.406 -2.707)">
    <g transform="translate(30.814 13.833)" id="g220">
      <path transform="scale(.004 -.004)" d="M218 136c55 0 108-28 108-89 0-71-55-121-102-149-35-21-75-34-116-34C53-136 0-108 0-47 0 24 55 74 102 102c35 21 75 34 116 34z" fill="currentColor" id="path218"/>
    </g>
  </a>
  <a style="color:inherit" id="a242" transform="translate(-5.406 -2.707)">
    <g transform="translate(30.814 10.056)" id="g228">
      <text font-family="serif" font-size="2.616" text-anchor="start" fill="currentColor" id="text226"><tspan id="tspan224">A</tspan></text>
    </g>
    <g transform="translate(32.691 10.056)" id="g234">
      <text font-family="serif" font-size="2.616" text-anchor="start" fill="currentColor" id="text232"><tspan id="tspan230">−</tspan></text>
    </g>
    <g transform="translate(34.877 8.867)" id="g240">
      <text font-family="serif" font-size="1.85" text-anchor="start" fill="currentColor" id="text238"><tspan id="tspan236">7</tspan></text>
    </g>
  </a>
  <g transform="translate(1.055 14.445)" id="g248">
    <text font-family="serif" font-size="2.2" text-anchor="start" fill="currentColor" id="text246"><tspan id="tspan244">Reduction </tspan></text>
  </g>
  <a style="color:inherit" id="a254" transform="translate(-5.406 -2.707)">
    <g transform="translate(36.835 14.833)" id="g252">
      <path transform="scale(.004 -.004)" d="M218 136c55 0 108-28 108-89 0-71-55-121-102-149-35-21-75-34-116-34C53-136 0-108 0-47 0 24 55 74 102 102c35 21 75 34 116 34z" fill="currentColor" id="path250"/>
    </g>
  </a>
  <g transform="translate(31.494 13.626)" id="g258">
    <rect x="-.065" y="-.314" width=".13" height="3.314" ry=".04" fill="currentColor" id="rect256"/>
  </g>
  <g transform="translate(33.184 13.126)" id="g262">
    <path transform="scale(.004 -.004)" d="M0 0c0 31 25 56 56 56s56-25 56-56-25-56-56-56S0-31 0 0Z" fill="currentColor" id="path260"/>
  </g>
  <g transform="translate(32.669 13.626)" id="g266">
    <rect x="-.065" y="-4.333" width=".13" height="2.647" ry=".04" fill="currentColor" id="rect264"/>
  </g>
  <g transform="translate(33.184 12.126)" id="g270">
    <path transform="scale(.004 -.004)" d="M0 0c0 31 25 56 56 56s56-25 56-56-25-56-56-56S0-31 0 0Z" fill="currentColor" id="path268"/>
  </g>
  <a style="color:inherit" id="a276" transform="translate(-5.406 -2.707)">
    <g transform="translate(36.835 15.833)" id="g274">
      <path transform="scale(.004 -.004)" d="M218 136c55 0 108-28 108-89 0-71-55-121-102-149-35-21-75-34-116-34C53-136 0-108 0-47 0 24 55 74 102 102c35 21 75 34 116 34z" fill="currentColor" id="path272"/>
    </g>
  </a>
  <g transform="translate(29.214 13.626)" id="g280">
    <rect x="-.065" y="-5.5" width=".13" height="2.314" ry=".04" fill="currentColor" id="rect278"/>
  </g>
  <a style="color:inherit" id="a286" transform="translate(-5.406 -2.707)">
    <g transform="translate(33.381 13.333)" id="g284">
      <path transform="scale(.004 -.004)" d="M218 136c55 0 108-28 108-89 0-71-55-121-102-149-35-21-75-34-116-34C53-136 0-108 0-47 0 24 55 74 102 102c35 21 75 34 116 34z" fill="currentColor" id="path282"/>
    </g>
  </a>
</svg>
