<svg version="1.2" width="755.427" height="416.256" viewBox="0 0 113.739 62.673" id="svg1764" xmlns="http://www.w3.org/2000/svg">
  <style type="text/css" id="style2">
    tspan{white-space:pre}
  </style>
  <g transform="translate(18.657 9.721)" id="g6">
    <path stroke-linejoin="round" stroke-linecap="round" stroke-width=".1" stroke="currentColor" id="line4" d="M.05 0h93.794"/>
  </g>
  <g transform="translate(18.657 8.721)" id="g10">
    <path stroke-linejoin="round" stroke-linecap="round" stroke-width=".1" stroke="currentColor" id="line8" d="M.05 0h93.794"/>
  </g>
  <g transform="translate(18.657 7.721)" id="g14">
    <path stroke-linejoin="round" stroke-linecap="round" stroke-width=".1" stroke="currentColor" id="line12" d="M.05 0h93.794"/>
  </g>
  <g transform="translate(18.657 6.721)" id="g18">
    <path stroke-linejoin="round" stroke-linecap="round" stroke-width=".1" stroke="currentColor" id="line16" d="M.05 0h93.794"/>
  </g>
  <g transform="translate(18.657 5.721)" id="g22">
    <path stroke-linejoin="round" stroke-linecap="round" stroke-width=".1" stroke="currentColor" id="line20" d="M.05 0h93.794"/>
  </g>
  <g transform="translate(112.36 7.721)" id="g26">
    <rect x="0" y="-2" width=".19" height="4" ry="0" fill="currentColor" id="rect24"/>
  </g>
  <g transform="translate(112.36 17.01)" id="g30">
    <rect x="0" y="-2" width=".19" height="4" ry="0" fill="currentColor" id="rect28"/>
  </g>
  <g transform="translate(112.36 26.01)" id="g34">
    <rect x="0" y="-2" width=".19" height="4" ry="0" fill="currentColor" id="rect32"/>
  </g>
  <g transform="translate(18.657 28.01)" id="g38">
    <path stroke-linejoin="round" stroke-linecap="round" stroke-width=".1" stroke="currentColor" id="line36" d="M.05 0h93.794"/>
  </g>
  <g transform="translate(18.657 27.01)" id="g42">
    <path stroke-linejoin="round" stroke-linecap="round" stroke-width=".1" stroke="currentColor" id="line40" d="M.05 0h93.794"/>
  </g>
  <g transform="translate(18.657 26.01)" id="g46">
    <path stroke-linejoin="round" stroke-linecap="round" stroke-width=".1" stroke="currentColor" id="line44" d="M.05 0h93.794"/>
  </g>
  <g transform="translate(18.657 25.01)" id="g50">
    <path stroke-linejoin="round" stroke-linecap="round" stroke-width=".1" stroke="currentColor" id="line48" d="M.05 0h93.794"/>
  </g>
  <g transform="translate(18.657 24.01)" id="g54">
    <path stroke-linejoin="round" stroke-linecap="round" stroke-width=".1" stroke="currentColor" id="line52" d="M.05 0h93.794"/>
  </g>
  <g transform="translate(18.657 19.01)" id="g58">
    <path stroke-linejoin="round" stroke-linecap="round" stroke-width=".1" stroke="currentColor" id="line56" d="M.05 0h93.794"/>
  </g>
  <g transform="translate(18.657 18.01)" id="g62">
    <path stroke-linejoin="round" stroke-linecap="round" stroke-width=".1" stroke="currentColor" id="line60" d="M.05 0h93.794"/>
  </g>
  <g transform="translate(18.657 17.01)" id="g66">
    <path stroke-linejoin="round" stroke-linecap="round" stroke-width=".1" stroke="currentColor" id="line64" d="M.05 0h93.794"/>
  </g>
  <g transform="translate(18.657 16.01)" id="g70">
    <path stroke-linejoin="round" stroke-linecap="round" stroke-width=".1" stroke="currentColor" id="line68" d="M.05 0h93.794"/>
  </g>
  <g transform="translate(18.657 15.01)" id="g74">
    <path stroke-linejoin="round" stroke-linecap="round" stroke-width=".1" stroke="currentColor" id="line72" d="M.05 0h93.794"/>
  </g>
  <g transform="translate(4.43 10.721)" id="g78">
    <rect x="24.797" y="-.1" width="1.956" height=".2" ry=".1" fill="currentColor" id="rect76"/>
  </g>
  <g transform="translate(4.43 11.721)" id="g82">
    <rect x="24.797" y="-.1" width="1.956" height=".2" ry=".1" fill="currentColor" id="rect80"/>
  </g>
  <g transform="translate(84.745 6.221)" id="g86">
    <path transform="scale(.004 -.004)" d="M0 0c0 31 25 56 56 56s56-25 56-56-25-56-56-56S0-31 0 0Z" fill="currentColor" id="path84"/>
  </g>
  <g transform="translate(84.745 7.221)" id="g90">
    <path transform="scale(.004 -.004)" d="M0 0c0 31 25 56 56 56s56-25 56-56-25-56-56-56S0-31 0 0Z" fill="currentColor" id="path88"/>
  </g>
  <g transform="translate(83.056 7.721)" id="g94">
    <rect x="-.065" y="-1.314" width=".13" height="5.647" ry=".04" fill="currentColor" id="rect92"/>
  </g>
  <g transform="translate(84.745 9.221)" id="g98">
    <path transform="scale(.004 -.004)" d="M0 0c0 31 25 56 56 56s56-25 56-56-25-56-56-56S0-31 0 0Z" fill="currentColor" id="path96"/>
  </g>
  <a style="color:inherit" id="a104" transform="translate(-1.26 -2.707)">
    <g transform="translate(84.25 28.217)" id="g102">
      <path transform="scale(.004 -.004)" d="M218 136c55 0 108-28 108-89 0-71-55-121-102-149-35-21-75-34-116-34C53-136 0-108 0-47 0 24 55 74 102 102c35 21 75 34 116 34z" fill="currentColor" id="path100"/>
    </g>
  </a>
  <a style="color:inherit" id="a110" transform="translate(-1.26 -2.707)">
    <g transform="translate(84.25 8.929)" id="g108">
      <path transform="scale(.004 -.004)" d="M218 136c55 0 108-28 108-89 0-71-55-121-102-149-35-21-75-34-116-34C53-136 0-108 0-47 0 24 55 74 102 102c35 21 75 34 116 34z" fill="currentColor" id="path106"/>
    </g>
  </a>
  <a style="color:inherit" id="a116" transform="translate(-1.26 -2.707)">
    <g transform="translate(84.25 10.429)" id="g114">
      <path transform="scale(.004 -.004)" d="M218 136c55 0 108-28 108-89 0-71-55-121-102-149-35-21-75-34-116-34C53-136 0-108 0-47 0 24 55 74 102 102c35 21 75 34 116 34z" fill="currentColor" id="path112"/>
    </g>
  </a>
  <a style="color:inherit" id="a122" transform="translate(-1.26 -2.707)">
    <g transform="translate(84.25 11.929)" id="g120">
      <path transform="scale(.004 -.004)" d="M218 136c55 0 108-28 108-89 0-71-55-121-102-149-35-21-75-34-116-34C53-136 0-108 0-47 0 24 55 74 102 102c35 21 75 34 116 34z" fill="currentColor" id="path118"/>
    </g>
  </a>
  <g transform="translate(83.056 26.01)" id="g126">
    <rect x="-.065" y="-.314" width=".13" height="3.314" ry=".04" fill="currentColor" id="rect124"/>
  </g>
  <g transform="translate(81.079 26.01)" id="g130">
    <rect x="-.065" y="-5" width=".13" height="2.08" ry=".04" fill="currentColor" id="rect128"/>
  </g>
  <a style="color:inherit" id="a136" transform="translate(-1.26 -2.707)">
    <g transform="translate(81.1 26.217)" id="g134">
      <path transform="scale(.004 -.004)" d="m163 36 119 97c3 2 6 3 9 3s7-1 10-3l20-16c3-3 5-8 5-12s-2-9-5-12L206 0l115-93c3-3 5-8 5-12s-2-9-5-12l-20-16c-3-2-7-3-10-3s-6 1-9 3L163-36 44-133c-3-2-6-3-9-3s-7 1-10 3L5-117c-3 3-5 8-5 12s2 9 5 12L120 0 5 93c-3 3-5 8-5 12s2 9 5 12l20 16c3 2 7 3 10 3s6-1 9-3z" fill="currentColor" id="path132"/>
    </g>
  </a>
  <g transform="translate(76.754 26.01)" id="g140">
    <rect x="-.065" y="1.686" width=".13" height="2.647" ry=".04" fill="currentColor" id="rect138"/>
  </g>
  <a style="color:inherit" id="a146" transform="translate(-1.26 -2.707)">
    <g transform="translate(95.258 10.429)" id="g144">
      <path transform="scale(.004 -.004)" d="M218 136c55 0 108-28 108-89 0-71-55-121-102-149-35-21-75-34-116-34C53-136 0-108 0-47 0 24 55 74 102 102c35 21 75 34 116 34z" fill="currentColor" id="path142"/>
    </g>
  </a>
  <g transform="translate(89.423 30.47)" id="g150">
    <path transform="scale(.004 -.004)" d="M0 0h-16v250H0Zm0 0v250c97 59 224 148 224 259 0 57-15 112-40 163-3 16 10 27 23 27 7 0 15-3 20-11 25-56 40-117 40-179C267 306 0 203 0 0Z" fill="currentColor" id="path148"/>
  </g>
  <g transform="translate(89.358 26.01)" id="g154">
    <rect x="-.065" y="1.686" width=".13" height="2.814" ry=".04" fill="currentColor" id="rect152"/>
  </g>
  <a style="color:inherit" id="a160" transform="translate(-1.26 -2.707)">
    <g transform="translate(90.553 30.217)" id="g158">
      <path transform="scale(.004 -.004)" d="M218 136c55 0 108-28 108-89 0-71-55-121-102-149-35-21-75-34-116-34C53-136 0-108 0-47 0 24 55 74 102 102c35 21 75 34 116 34z" fill="currentColor" id="path156"/>
    </g>
  </a>
  <g transform="translate(69.293 26.01)" id="g164">
    <rect x="-.065" y="-.314" width=".13" height="3.124" ry=".04" fill="currentColor" id="rect162"/>
  </g>
  <g transform="translate(87.38 26.01)" id="g168">
    <rect x="-.065" y="-5" width=".13" height="2.08" ry=".04" fill="currentColor" id="rect166"/>
  </g>
  <a style="color:inherit" id="a174" transform="translate(-1.26 -2.707)">
    <g transform="translate(87.402 26.217)" id="g172">
      <path transform="scale(.004 -.004)" d="m163 36 119 97c3 2 6 3 9 3s7-1 10-3l20-16c3-3 5-8 5-12s-2-9-5-12L206 0l115-93c3-3 5-8 5-12s-2-9-5-12l-20-16c-3-2-7-3-10-3s-6 1-9 3L163-36 44-133c-3-2-6-3-9-3s-7 1-10 3L5-117c-3 3-5 8-5 12s2 9 5 12L120 0 5 93c-3 3-5 8-5 12s2 9 5 12l20 16c3 2 7 3 10 3s6-1 9-3z" fill="currentColor" id="path170"/>
    </g>
  </a>
  <a style="color:inherit" id="a180" transform="translate(-1.26 -2.707)">
    <g transform="translate(95.258 7.929)" id="g178">
      <path transform="scale(.004 -.004)" d="M218 136c55 0 108-28 108-89 0-71-55-121-102-149-35-21-75-34-116-34C53-136 0-108 0-47 0 24 55 74 102 102c35 21 75 34 116 34z" fill="currentColor" id="path176"/>
    </g>
  </a>
  <a style="color:inherit" id="a186" transform="translate(-1.26 -2.707)">
    <g transform="translate(95.258 8.929)" id="g184">
      <path transform="scale(.004 -.004)" d="M218 136c55 0 108-28 108-89 0-71-55-121-102-149-35-21-75-34-116-34C53-136 0-108 0-47 0 24 55 74 102 102c35 21 75 34 116 34z" fill="currentColor" id="path182"/>
    </g>
  </a>
  <a style="color:inherit" id="a192" transform="translate(-1.26 -2.707)">
    <g transform="translate(73.243 8.429)" id="g190">
      <path transform="scale(.004 -.004)" d="M218 136c55 0 108-28 108-89 0-71-55-121-102-149-35-21-75-34-116-34C53-136 0-108 0-47 0 24 55 74 102 102c35 21 75 34 116 34z" fill="currentColor" id="path188"/>
    </g>
  </a>
  <g transform="translate(73.737 6.221)" id="g196">
    <path transform="scale(.004 -.004)" d="M0 0c0 31 25 56 56 56s56-25 56-56-25-56-56-56S0-31 0 0Z" fill="currentColor" id="path194"/>
  </g>
  <g transform="translate(73.737 7.221)" id="g200">
    <path transform="scale(.004 -.004)" d="M0 0c0 31 25 56 56 56s56-25 56-56-25-56-56-56S0-31 0 0Z" fill="currentColor" id="path198"/>
  </g>
  <g transform="translate(72.048 7.721)" id="g204">
    <rect x="-.065" y="-1.814" width=".13" height="6.147" ry=".04" fill="currentColor" id="rect202"/>
  </g>
  <g transform="translate(73.737 9.221)" id="g208">
    <path transform="scale(.004 -.004)" d="M0 0c0 31 25 56 56 56s56-25 56-56-25-56-56-56S0-31 0 0Z" fill="currentColor" id="path206"/>
  </g>
  <a style="color:inherit" id="a214" transform="translate(-1.26 -2.707)">
    <g transform="translate(73.243 30.217)" id="g212">
      <path transform="scale(.004 -.004)" d="M218 136c55 0 108-28 108-89 0-71-55-121-102-149-35-21-75-34-116-34C53-136 0-108 0-47 0 24 55 74 102 102c35 21 75 34 116 34z" fill="currentColor" id="path210"/>
    </g>
  </a>
  <a style="color:inherit" id="a220" transform="translate(-1.26 -2.707)">
    <g transform="translate(73.243 26.217)" id="g218">
      <path transform="scale(.004 -.004)" d="m163 36 119 97c3 2 6 3 9 3s7-1 10-3l20-16c3-3 5-8 5-12s-2-9-5-12L206 0l115-93c3-3 5-8 5-12s-2-9-5-12l-20-16c-3-2-7-3-10-3s-6 1-9 3L163-36 44-133c-3-2-6-3-9-3s-7 1-10 3L5-117c-3 3-5 8-5 12s2 9 5 12L120 0 5 93c-3 3-5 8-5 12s2 9 5 12l20 16c3 2 7 3 10 3s6-1 9-3z" fill="currentColor" id="path216"/>
    </g>
  </a>
  <a style="color:inherit" id="a226" transform="translate(-1.26 -2.707)">
    <g transform="translate(73.243 20.717)" id="g224">
      <path transform="scale(.004 -.004)" d="M314 65c0 24-21 41-42 41-4 0-8 0-12-1-31-9-78-40-115-64S61-12 41-37c-7-8-10-18-10-28 0-24 21-41 42-41 4 0 8 0 12 1 31 9 77 40 114 64s84 53 104 78c7 8 11 18 11 28zm-52 71c46 0 82-21 82-71 0-19-4-39-10-57-12-37-32-72-64-94-53-36-113-50-187-50-46 0-83 21-83 71C0-46 5-26 11-8c12 37 31 72 63 94 53 36 114 50 188 50z" fill="currentColor" id="path222"/>
    </g>
  </a>
  <g transform="translate(73.737 5.221)" id="g230">
    <path transform="scale(.004 -.004)" d="M0 0c0 31 25 56 56 56s56-25 56-56-25-56-56-56S0-31 0 0Z" fill="currentColor" id="path228"/>
  </g>
  <a style="color:inherit" id="a236" transform="translate(-1.26 -2.707)">
    <g transform="translate(72.004 8.929)" id="g234">
      <path transform="scale(.004 -.004)" d="M218 136c55 0 108-28 108-89 0-71-55-121-102-149-35-21-75-34-116-34C53-136 0-108 0-47 0 24 55 74 102 102c35 21 75 34 116 34z" fill="currentColor" id="path232"/>
    </g>
  </a>
  <a style="color:inherit" id="a242" transform="translate(-1.26 -2.707)">
    <g transform="translate(73.243 10.429)" id="g240">
      <path transform="scale(.004 -.004)" d="M218 136c55 0 108-28 108-89 0-71-55-121-102-149-35-21-75-34-116-34C53-136 0-108 0-47 0 24 55 74 102 102c35 21 75 34 116 34z" fill="currentColor" id="path238"/>
    </g>
  </a>
  <a style="color:inherit" id="a248" transform="translate(-1.26 -2.707)">
    <g transform="translate(73.243 11.929)" id="g246">
      <path transform="scale(.004 -.004)" d="M218 136c55 0 108-28 108-89 0-71-55-121-102-149-35-21-75-34-116-34C53-136 0-108 0-47 0 24 55 74 102 102c35 21 75 34 116 34z" fill="currentColor" id="path244"/>
    </g>
  </a>
  <g transform="translate(69.028 25.51)" id="g252">
    <path transform="scale(.002 -.002)" d="M-94 0c0-84 12-170 60-239 3-4 3-7 3-11 0-10-9-19-19-19-5 0-12 2-16 8-54 77-90 167-90 261s36 184 90 261c4 6 11 8 16 8 10 0 19-9 19-19 0-4 0-7-3-11C-82 170-94 84-94 0Z" fill="currentColor" id="path250"/>
  </g>
  <g transform="translate(70.733 25.51)" id="g256">
    <path transform="scale(.002 -.002)" d="M94 0c0 84-12 170-60 239-3 4-3 7-3 11 0 10 9 19 19 19 5 0 12-2 16-8 54-77 90-167 90-261s-36-184-90-261c-4-6-11-8-16-8-10 0-19 9-19 19 0 4 0 7 3 11C82-170 94-84 94 0z" fill="currentColor" id="path254"/>
  </g>
  <g transform="translate(66.224 28.01)" id="g260">
    <path stroke-linejoin="round" stroke-linecap="round" stroke-width=".08" fill="currentColor" stroke="currentColor" id="polygon258" d="M.04.2v-.4h3.055v.4z"/>
  </g>
  <g transform="translate(66.224 28.82)" id="g264">
    <path stroke-linejoin="round" stroke-linecap="round" stroke-width=".08" fill="currentColor" stroke="currentColor" id="polygon262" d="M.04.2v-.4h3.055v.4z"/>
  </g>
  <g transform="translate(73.222 26.01)" id="g268">
    <rect x="-.065" y="-5" width=".13" height="2.08" ry=".04" fill="currentColor" id="rect266"/>
  </g>
  <g transform="translate(72.113 30.47)" id="g272">
    <path transform="scale(.004 -.004)" d="M0 0h-16v250H0Zm0 0v250c97 59 224 148 224 259 0 57-15 112-40 163-3 16 10 27 23 27 7 0 15-3 20-11 25-56 40-117 40-179C267 306 0 203 0 0Z" fill="currentColor" id="path270"/>
  </g>
  <g transform="translate(72.048 26.01)" id="g276">
    <rect x="-.065" y="1.686" width=".13" height="2.814" ry=".04" fill="currentColor" id="rect274"/>
  </g>
  <a style="color:inherit" id="a282" transform="translate(-1.26 -2.707)">
    <g transform="translate(77.949 30.217)" id="g280">
      <path transform="scale(.004 -.004)" d="M218 136c55 0 108-28 108-89 0-71-55-121-102-149-35-21-75-34-116-34C53-136 0-108 0-47 0 24 55 74 102 102c35 21 75 34 116 34z" fill="currentColor" id="path278"/>
    </g>
  </a>
  <g transform="translate(73.296 17.01)" id="g286">
    <rect x="-.065" y="-2.5" width=".13" height="3.241" ry=".04" fill="currentColor" id="rect284"/>
  </g>
  <g transform="translate(73.81 17.51)" id="g290">
    <path transform="scale(.004 -.004)" d="M0 0c0 31 25 56 56 56s56-25 56-56-25-56-56-56S0-31 0 0Z" fill="currentColor" id="path288"/>
  </g>
  <g transform="translate(110.595 26.01)" id="g294">
    <rect x="-.065" y="-5.19" width=".13" height="2.27" ry=".04" fill="currentColor" id="rect292"/>
  </g>
  <a style="color:inherit" id="a300" transform="translate(-1.26 -2.707)">
    <g transform="translate(110.616 26.217)" id="g298">
      <path transform="scale(.004 -.004)" d="m163 36 119 97c3 2 6 3 9 3s7-1 10-3l20-16c3-3 5-8 5-12s-2-9-5-12L206 0l115-93c3-3 5-8 5-12s-2-9-5-12l-20-16c-3-2-7-3-10-3s-6 1-9 3L163-36 44-133c-3-2-6-3-9-3s-7 1-10 3L5-117c-3 3-5 8-5 12s2 9 5 12L120 0 5 93c-3 3-5 8-5 12s2 9 5 12l20 16c3 2 7 3 10 3s6-1 9-3z" fill="currentColor" id="path296"/>
    </g>
  </a>
  <g transform="translate(107.59 26.01)" id="g304">
    <rect x="-.065" y="-5.19" width=".13" height="2.27" ry=".04" fill="currentColor" id="rect302"/>
  </g>
  <a style="color:inherit" id="a310" transform="translate(-1.26 -2.707)">
    <g transform="translate(107.611 26.217)" id="g308">
      <path transform="scale(.004 -.004)" d="m163 36 119 97c3 2 6 3 9 3s7-1 10-3l20-16c3-3 5-8 5-12s-2-9-5-12L206 0l115-93c3-3 5-8 5-12s-2-9-5-12l-20-16c-3-2-7-3-10-3s-6 1-9 3L163-36 44-133c-3-2-6-3-9-3s-7 1-10 3L5-117c-3 3-5 8-5 12s2 9 5 12L120 0 5 93c-3 3-5 8-5 12s2 9 5 12l20 16c3 2 7 3 10 3s6-1 9-3z" fill="currentColor" id="path306"/>
    </g>
  </a>
  <g transform="translate(104.586 26.01)" id="g314">
    <rect x="-.065" y="-5.19" width=".13" height="2.27" ry=".04" fill="currentColor" id="rect312"/>
  </g>
  <a style="color:inherit" id="a320" transform="translate(-1.26 -2.707)">
    <g transform="translate(104.606 26.217)" id="g318">
      <path transform="scale(.004 -.004)" d="m163 36 119 97c3 2 6 3 9 3s7-1 10-3l20-16c3-3 5-8 5-12s-2-9-5-12L206 0l115-93c3-3 5-8 5-12s-2-9-5-12l-20-16c-3-2-7-3-10-3s-6 1-9 3L163-36 44-133c-3-2-6-3-9-3s-7 1-10 3L5-117c-3 3-5 8-5 12s2 9 5 12L120 0 5 93c-3 3-5 8-5 12s2 9 5 12l20 16c3 2 7 3 10 3s6-1 9-3z" fill="currentColor" id="path316"/>
    </g>
  </a>
  <g transform="translate(101.516 20.82)" id="g324">
    <path stroke-linejoin="round" stroke-linecap="round" stroke-width=".08" fill="currentColor" stroke="currentColor" id="polygon322" d="M.04.2v-.4h9.065v.4z"/>
  </g>
  <g transform="translate(101.516 21.63)" id="g328">
    <path stroke-linejoin="round" stroke-linecap="round" stroke-width=".08" fill="currentColor" stroke="currentColor" id="polygon326" d="M.04.2v-.4h9.065v.4z"/>
  </g>
  <g transform="translate(100.407 26.01)" id="g332">
    <rect x="-.065" y="1.686" width=".13" height="2.647" ry=".04" fill="currentColor" id="rect330"/>
  </g>
  <g transform="translate(94.063 26.01)" id="g336">
    <rect x="-.065" y="-.314" width=".13" height="3.314" ry=".04" fill="currentColor" id="rect334"/>
  </g>
  <g transform="translate(95.237 26.01)" id="g340">
    <rect x="-.065" y="-5" width=".13" height="2.08" ry=".04" fill="currentColor" id="rect338"/>
  </g>
  <a style="color:inherit" id="a346" transform="translate(-1.26 -2.707)">
    <g transform="translate(101.602 10.429)" id="g344">
      <path transform="scale(.004 -.004)" d="M218 136c55 0 108-28 108-89 0-71-55-121-102-149-35-21-75-34-116-34C53-136 0-108 0-47 0 24 55 74 102 102c35 21 75 34 116 34z" fill="currentColor" id="path342"/>
    </g>
  </a>
  <g transform="translate(94.063 17.01)" id="g350">
    <rect x="-.065" y="-1.314" width=".13" height="3.314" ry=".04" fill="currentColor" id="rect348"/>
  </g>
  <g transform="translate(94.063 7.721)" id="g354">
    <rect x="-.065" y="-2.314" width=".13" height="5.647" ry=".04" fill="currentColor" id="rect352"/>
  </g>
  <a style="color:inherit" id="a360" transform="translate(-1.26 -2.707)">
    <g transform="translate(95.258 28.217)" id="g358">
      <path transform="scale(.004 -.004)" d="M218 136c55 0 108-28 108-89 0-71-55-121-102-149-35-21-75-34-116-34C53-136 0-108 0-47 0 24 55 74 102 102c35 21 75 34 116 34z" fill="currentColor" id="path356"/>
    </g>
  </a>
  <a style="color:inherit" id="a366" transform="translate(-1.26 -2.707)">
    <g transform="translate(95.258 26.217)" id="g364">
      <path transform="scale(.004 -.004)" d="m163 36 119 97c3 2 6 3 9 3s7-1 10-3l20-16c3-3 5-8 5-12s-2-9-5-12L206 0l115-93c3-3 5-8 5-12s-2-9-5-12l-20-16c-3-2-7-3-10-3s-6 1-9 3L163-36 44-133c-3-2-6-3-9-3s-7 1-10 3L5-117c-3 3-5 8-5 12s2 9 5 12L120 0 5 93c-3 3-5 8-5 12s2 9 5 12l20 16c3 2 7 3 10 3s6-1 9-3z" fill="currentColor" id="path362"/>
    </g>
  </a>
  <g transform="translate(101.58 26.01)" id="g370">
    <rect x="-.065" y="-5.19" width=".13" height="2.27" ry=".04" fill="currentColor" id="rect368"/>
  </g>
  <g transform="translate(100.407 17.01)" id="g374">
    <rect x="-.065" y="-.814" width=".13" height="3.314" ry=".04" fill="currentColor" id="rect372"/>
  </g>
  <a style="color:inherit" id="a380" transform="translate(-1.26 -2.707)">
    <g transform="translate(95.258 18.217)" id="g378">
      <path transform="scale(.004 -.004)" d="M218 136c55 0 108-28 108-89 0-71-55-121-102-149-35-21-75-34-116-34C53-136 0-108 0-47 0 24 55 74 102 102c35 21 75 34 116 34z" fill="currentColor" id="path376"/>
    </g>
  </a>
  <g transform="translate(100.407 7.721)" id="g384">
    <rect x="-.065" y="-1.814" width=".13" height="5.147" ry=".04" fill="currentColor" id="rect382"/>
  </g>
  <a style="color:inherit" id="a390" transform="translate(-1.26 -2.707)">
    <g transform="translate(101.602 30.217)" id="g388">
      <path transform="scale(.004 -.004)" d="M218 136c55 0 108-28 108-89 0-71-55-121-102-149-35-21-75-34-116-34C53-136 0-108 0-47 0 24 55 74 102 102c35 21 75 34 116 34z" fill="currentColor" id="path386"/>
    </g>
  </a>
  <a style="color:inherit" id="a396" transform="translate(-1.26 -2.707)">
    <g transform="translate(101.602 26.217)" id="g394">
      <path transform="scale(.004 -.004)" d="m163 36 119 97c3 2 6 3 9 3s7-1 10-3l20-16c3-3 5-8 5-12s-2-9-5-12L206 0l115-93c3-3 5-8 5-12s-2-9-5-12l-20-16c-3-2-7-3-10-3s-6 1-9 3L163-36 44-133c-3-2-6-3-9-3s-7 1-10 3L5-117c-3 3-5 8-5 12s2 9 5 12L120 0 5 93c-3 3-5 8-5 12s2 9 5 12l20 16c3 2 7 3 10 3s6-1 9-3z" fill="currentColor" id="path392"/>
    </g>
  </a>
  <a style="color:inherit" id="a402" transform="translate(-1.26 -2.707)">
    <g transform="translate(101.602 18.717)" id="g400">
      <path transform="scale(.004 -.004)" d="M218 136c55 0 108-28 108-89 0-71-55-121-102-149-35-21-75-34-116-34C53-136 0-108 0-47 0 24 55 74 102 102c35 21 75 34 116 34z" fill="currentColor" id="path398"/>
    </g>
  </a>
  <a style="color:inherit" id="a408" transform="translate(-1.26 -2.707)">
    <g transform="translate(101.602 8.429)" id="g406">
      <path transform="scale(.004 -.004)" d="M218 136c55 0 108-28 108-89 0-71-55-121-102-149-35-21-75-34-116-34C53-136 0-108 0-47 0 24 55 74 102 102c35 21 75 34 116 34z" fill="currentColor" id="path404"/>
    </g>
  </a>
  <a style="color:inherit" id="a414" transform="translate(-1.26 -2.707)">
    <g transform="translate(100.362 8.929)" id="g412">
      <path transform="scale(.004 -.004)" d="M218 136c55 0 108-28 108-89 0-71-55-121-102-149-35-21-75-34-116-34C53-136 0-108 0-47 0 24 55 74 102 102c35 21 75 34 116 34z" fill="currentColor" id="path410"/>
    </g>
  </a>
  <a style="color:inherit" id="a420" transform="translate(-1.26 -2.707)">
    <g transform="translate(37.466 26.217)" id="g418">
      <path transform="scale(.004 -.004)" d="m163 36 119 97c3 2 6 3 9 3s7-1 10-3l20-16c3-3 5-8 5-12s-2-9-5-12L206 0l115-93c3-3 5-8 5-12s-2-9-5-12l-20-16c-3-2-7-3-10-3s-6 1-9 3L163-36 44-133c-3-2-6-3-9-3s-7 1-10 3L5-117c-3 3-5 8-5 12s2 9 5 12L120 0 5 93c-3 3-5 8-5 12s2 9 5 12l20 16c3 2 7 3 10 3s6-1 9-3z" fill="currentColor" id="path416"/>
    </g>
  </a>
  <g transform="translate(37.446 26.01)" id="g424">
    <rect x="-.065" y="-5" width=".13" height="2.08" ry=".04" fill="currentColor" id="rect422"/>
  </g>
  <g transform="translate(29.618 26.01)" id="g428">
    <rect x="-.065" y="1.686" width=".13" height="2.647" ry=".04" fill="currentColor" id="rect426"/>
  </g>
  <g transform="translate(31.308 27.51)" id="g432">
    <path transform="scale(.004 -.004)" d="M0 0c0 31 25 56 56 56s56-25 56-56-25-56-56-56S0-31 0 0Z" fill="currentColor" id="path430"/>
  </g>
  <g transform="translate(31.04 26.01)" id="g436">
    <rect x="-.065" y="-5" width=".13" height="2.5" ry=".04" fill="currentColor" id="rect434"/>
  </g>
  <a style="color:inherit" id="a442" transform="translate(-1.26 -2.707)">
    <g transform="translate(70.489 28.217)" id="g440">
      <path transform="scale(.004 -.004)" d="M218 136c55 0 108-28 108-89 0-71-55-121-102-149-35-21-75-34-116-34C53-136 0-108 0-47 0 24 55 74 102 102c35 21 75 34 116 34z" fill="currentColor" id="path438"/>
    </g>
  </a>
  <g transform="translate(39.422 26.01)" id="g446">
    <rect x="-.065" y="1.686" width=".13" height="2.647" ry=".04" fill="currentColor" id="rect444"/>
  </g>
  <g transform="translate(41.112 7.221)" id="g450">
    <path transform="scale(.004 -.004)" d="M0 0c0 31 25 56 56 56s56-25 56-56-25-56-56-56S0-31 0 0Z" fill="currentColor" id="path448"/>
  </g>
  <g transform="translate(41.112 8.221)" id="g454">
    <path transform="scale(.004 -.004)" d="M0 0c0 31 25 56 56 56s56-25 56-56-25-56-56-56S0-31 0 0Z" fill="currentColor" id="path452"/>
  </g>
  <g transform="translate(40.597 7.721)" id="g458">
    <rect x="-.065" y="-3.667" width=".13" height="5.481" ry=".04" fill="currentColor" id="rect456"/>
  </g>
  <g transform="translate(41.112 9.221)" id="g462">
    <path transform="scale(.004 -.004)" d="M0 0c0 31 25 56 56 56s56-25 56-56-25-56-56-56S0-31 0 0Z" fill="currentColor" id="path460"/>
  </g>
  <a style="color:inherit" id="a468" transform="translate(-1.26 -2.707)">
    <g transform="translate(40.617 30.217)" id="g466">
      <path transform="scale(.004 -.004)" d="M218 136c55 0 108-28 108-89 0-71-55-121-102-149-35-21-75-34-116-34C53-136 0-108 0-47 0 24 55 74 102 102c35 21 75 34 116 34z" fill="currentColor" id="path464"/>
    </g>
  </a>
  <a style="color:inherit" id="a474" transform="translate(-1.26 -2.707)">
    <g transform="translate(40.617 9.929)" id="g472">
      <path transform="scale(.004 -.004)" d="M218 136c55 0 108-28 108-89 0-71-55-121-102-149-35-21-75-34-116-34C53-136 0-108 0-47 0 24 55 74 102 102c35 21 75 34 116 34z" fill="currentColor" id="path470"/>
    </g>
  </a>
  <a style="color:inherit" id="a480" transform="translate(-1.26 -2.707)">
    <g transform="translate(40.617 10.929)" id="g478">
      <path transform="scale(.004 -.004)" d="M218 136c55 0 108-28 108-89 0-71-55-121-102-149-35-21-75-34-116-34C53-136 0-108 0-47 0 24 55 74 102 102c35 21 75 34 116 34z" fill="currentColor" id="path476"/>
    </g>
  </a>
  <a style="color:inherit" id="a486" transform="translate(-1.26 -2.707)">
    <g transform="translate(40.617 12.429)" id="g484">
      <path transform="scale(.004 -.004)" d="M218 136c55 0 108-28 108-89 0-71-55-121-102-149-35-21-75-34-116-34C53-136 0-108 0-47 0 24 55 74 102 102c35 21 75 34 116 34z" fill="currentColor" id="path482"/>
    </g>
  </a>
  <g transform="translate(93.198 13.745)" id="g492">
    <text font-family="serif" font-weight="bold" font-style="italic" font-size="2.2" text-anchor="start" fill="currentColor" id="text490"><tspan id="tspan488">8</tspan></text>
  </g>
  <g transform="translate(95.034 12.96)" id="g496">
    <path stroke-linejoin="round" stroke-linecap="round" stroke-width=".1" stroke="currentColor" id="line494" d="M17.517 0h0"/>
  </g>
  <g transform="translate(95.034 12.96)" id="g500">
    <path stroke-linejoin="round" stroke-linecap="round" stroke-width=".1" stroke="currentColor" id="line498" d="M0 0h0"/>
  </g>
  <g transform="translate(95.034 12.96)" id="g504">
    <path stroke-linejoin="round" stroke-linecap="round" stroke-width=".1" stroke="currentColor" stroke-dasharray="0.303755, 0.708761" id="line502" d="M0 0h17.517"/>
  </g>
  <a style="color:inherit" id="a510" transform="translate(-1.26 -2.707)">
    <g transform="translate(24.337 20.717)" id="g508">
      <path transform="scale(.004 -.004)" d="m27 41-1-66v-11c0-22 1-44 4-66 45 38 93 80 93 139 0 33-14 67-43 67-31 0-52-30-53-63Zm-42-179-12 595c8 5 18 8 27 8s19-3 27-8l-7-345c25 21 58 34 91 34 52 0 89-48 89-102 0-80-86-117-147-169-15-13-24-38-45-38-13 0-23 11-23 25z" fill="currentColor" id="path506"/>
    </g>
  </a>
  <g transform="translate(19.457 16.01)" id="g514">
    <path transform="scale(.004 -.004)" d="M557-125c0 28 23 51 51 51s51-23 51-51-23-51-51-51-51 23-51 51zm0 250c0 28 23 51 51 51s51-23 51-51-23-51-51-51-51 23-51 51zM232 263c172 0 293-88 293-251 0-263-263-414-516-521-3-3-6-4-9-4-7 0-13 6-13 13 0 3 1 6 4 9C193-373 403-226 403 2c0 120-63 235-171 235-74 0-129-54-154-126 11 5 22 8 34 8 55 0 100-45 100-100 0-58-44-106-100-106C52-87 0-40 0 19c0 133 102 244 232 244Z" fill="currentColor" id="path512"/>
  </g>
  <a style="color:inherit" id="a520" transform="translate(-1.26 -2.707)">
    <g transform="translate(30.814 21.217)" id="g518">
      <path transform="scale(.004 -.004)" d="M213 112c-50 0-69-43-69-88 0-77 57-136 134-136 50 0 69 43 69 88 0 77-57 136-134 136zM491 0c0-43-34-75-72-96-53-29-114-40-174-40S125-125 72-96C34-75 0-43 0 0s34 75 72 96c53 29 113 40 173 40s121-11 174-40c38-21 72-53 72-96z" fill="currentColor" id="path516"/>
    </g>
  </a>
  <a style="color:inherit" id="a534" transform="translate(-1.26 -2.707)">
    <g transform="translate(26.287 10.429)" id="g528">
      <g id="g526">
        <path transform="scale(.004 -.004)" d="M175 487c18 0 58 31 58-3V117c0-48 28-94 73-94 8 0 12-5 12-11s-4-12-12-12c-44 0-87 13-131 13S88 0 44 0c-8 0-12 6-12 12s4 11 12 11c45 0 73 46 73 94v245c0 12-9 19-17 19-4 0-8-3-10-7L26 238c-3-6-7-9-12-9-8 0-16 6-16 14 0 2 1 5 2 7l117 250c3 6 10 3 16 0 13-6 27-13 42-13z" fill="currentColor" id="path522"/>
        <path transform="matrix(.004 0 0 -.004 1.263 0)" d="M175 487c18 0 58 31 58-3V117c0-48 28-94 73-94 8 0 12-5 12-11s-4-12-12-12c-44 0-87 13-131 13S88 0 44 0c-8 0-12 6-12 12s4 11 12 11c45 0 73 46 73 94v245c0 12-9 19-17 19-4 0-8-3-10-7L26 238c-3-6-7-9-12-9-8 0-16 6-16 14 0 2 1 5 2 7l117 250c3 6 10 3 16 0 13-6 27-13 42-13z" fill="currentColor" id="path524"/>
      </g>
    </g>
    <g transform="translate(26.748 12.443)" id="g532">
      <path transform="scale(.004 -.004)" d="M196 117h117c0-48 27-94 72-94 8 0 12-5 12-11s-4-12-12-12c-44 0-87 13-131 13S167 0 123 0c-8 0-12 6-12 12s4 11 12 11c45 0 73 46 73 94zm8 190c22 14 44 29 60 50 11 15 19 33 27 50 2 4 5 6 9 6 6 0 13-5 13-14V154h72c10 0 15-7 15-14s-5-15-15-15h-72v-8H196v8H29c-23 0-31 14-31 23 0 3 1 5 2 6 80 93 138 207 138 330 0 10 7 19 16 16 23-7 47-13 71-13s48 6 71 13c14 4 23-9 17-16L29 154h167v131c0 8 1 17 8 22z" fill="currentColor" id="path530"/>
    </g>
  </a>
  <a style="color:inherit" id="a540" transform="translate(-1.26 -2.707)">
    <g transform="translate(24.337 10.429)" id="g538">
      <path transform="scale(.004 -.004)" d="m27 41-1-66v-11c0-22 1-44 4-66 45 38 93 80 93 139 0 33-14 67-43 67-31 0-52-30-53-63Zm-42-179-12 595c8 5 18 8 27 8s19-3 27-8l-7-345c25 21 58 34 91 34 52 0 89-48 89-102 0-80-86-117-147-169-15-13-24-38-45-38-13 0-23 11-23 25z" fill="currentColor" id="path536"/>
    </g>
  </a>
  <g transform="translate(19.457 8.721)" id="g544">
    <path transform="scale(.004 -.004)" d="M266-635h-6c-108 0-195 88-195 197 0 58 53 103 112 103 54 0 95-47 95-103 0-52-43-95-95-95-11 0-21 2-31 6 26-39 68-65 117-65h4zm195 432c68 24 113 95 113 164 0 90-66 179-173 190 24-116 46-231 60-354zM74 28c0-135 129-247 264-247 28 0 55 2 82 6-14 127-37 245-63 364-79-8-124-61-124-119 0-44 25-91 81-123 5-5 7-10 7-15 0-11-10-22-22-22-3 0-6 1-9 2C210-83 173-11 173 59c0 88 58 174 160 197-14 58-29 117-46 175C180 310 74 188 74 28Zm261-290C147-262 2-90 2 112c0 177 131 306 248 441-19 62-37 125-45 190-6 52-7 104-7 156 0 115 55 224 149 292 6 5 14 5 20 0 71-84 133-245 133-358 0-143-86-255-180-364 21-68 39-138 56-207 4 0 9 1 13 1 155 0 256-128 256-261 0-76-33-154-107-210-22-17-47-28-73-36 3-35 5-70 5-105 0-19-1-39-2-58-7-119-88-225-202-228l1 43c93 2 153 92 159 191 1 18 2 37 2 55 0 31-1 61-4 92-29-5-58-8-89-8zm93 1178c0 55-4 79-20 129-99-48-162-149-162-259 0-74 18-133 36-194 80 97 146 198 146 324z" fill="currentColor" id="path542"/>
  </g>
  <a style="color:inherit" id="a550" transform="translate(-1.26 -2.707)">
    <g transform="translate(30.814 10.929)" id="g548">
      <path transform="scale(.004 -.004)" d="M218 136c55 0 108-28 108-89 0-71-55-121-102-149-35-21-75-34-116-34C53-136 0-108 0-47 0 24 55 74 102 102c35 21 75 34 116 34z" fill="currentColor" id="path546"/>
    </g>
  </a>
  <a style="color:inherit" id="a556" transform="translate(-1.26 -2.707)">
    <g transform="translate(30.814 12.429)" id="g554">
      <path transform="scale(.004 -.004)" d="M218 136c55 0 108-28 108-89 0-71-55-121-102-149-35-21-75-34-116-34C53-136 0-108 0-47 0 24 55 74 102 102c35 21 75 34 116 34z" fill="currentColor" id="path552"/>
    </g>
  </a>
  <a style="color:inherit" id="a562" transform="translate(-1.26 -2.707)">
    <g transform="translate(30.814 14.429)" id="g560">
      <path transform="scale(.004 -.004)" d="M218 136c55 0 108-28 108-89 0-71-55-121-102-149-35-21-75-34-116-34C53-136 0-108 0-47 0 24 55 74 102 102c35 21 75 34 116 34z" fill="currentColor" id="path558"/>
    </g>
  </a>
  <a style="color:inherit" id="a576" transform="translate(-1.26 -2.707)">
    <g transform="translate(26.287 19.717)" id="g570">
      <g id="g568">
        <path transform="scale(.004 -.004)" d="M175 487c18 0 58 31 58-3V117c0-48 28-94 73-94 8 0 12-5 12-11s-4-12-12-12c-44 0-87 13-131 13S88 0 44 0c-8 0-12 6-12 12s4 11 12 11c45 0 73 46 73 94v245c0 12-9 19-17 19-4 0-8-3-10-7L26 238c-3-6-7-9-12-9-8 0-16 6-16 14 0 2 1 5 2 7l117 250c3 6 10 3 16 0 13-6 27-13 42-13z" fill="currentColor" id="path564"/>
        <path transform="matrix(.004 0 0 -.004 1.263 0)" d="M175 487c18 0 58 31 58-3V117c0-48 28-94 73-94 8 0 12-5 12-11s-4-12-12-12c-44 0-87 13-131 13S88 0 44 0c-8 0-12 6-12 12s4 11 12 11c45 0 73 46 73 94v245c0 12-9 19-17 19-4 0-8-3-10-7L26 238c-3-6-7-9-12-9-8 0-16 6-16 14 0 2 1 5 2 7l117 250c3 6 10 3 16 0 13-6 27-13 42-13z" fill="currentColor" id="path566"/>
      </g>
    </g>
    <g transform="translate(26.748 21.732)" id="g574">
      <path transform="scale(.004 -.004)" d="M196 117h117c0-48 27-94 72-94 8 0 12-5 12-11s-4-12-12-12c-44 0-87 13-131 13S167 0 123 0c-8 0-12 6-12 12s4 11 12 11c45 0 73 46 73 94zm8 190c22 14 44 29 60 50 11 15 19 33 27 50 2 4 5 6 9 6 6 0 13-5 13-14V154h72c10 0 15-7 15-14s-5-15-15-15h-72v-8H196v8H29c-23 0-31 14-31 23 0 3 1 5 2 6 80 93 138 207 138 330 0 10 7 19 16 16 23-7 47-13 71-13s48 6 71 13c14 4 23-9 17-16L29 154h167v131c0 8 1 17 8 22z" fill="currentColor" id="path572"/>
    </g>
  </a>
  <g transform="translate(18.597 16.866)" id="g580">
    <rect x="0" y="-11.194" width=".16" height="22.389" ry=".05" fill="currentColor" id="rect578"/>
  </g>
  <g transform="translate(2.59 25.176)" id="g586">
    <text font-family="serif" font-size="2.2" text-anchor="start" fill="currentColor" id="text584"><tspan id="tspan582">Drumkit </tspan></text>
  </g>
  <g transform="translate(2.59 28.176)" id="g592">
    <text font-family="serif" font-size="1.96" text-anchor="start" fill="currentColor" id="text590"><tspan id="tspan588">(Steven Roche) </tspan></text>
  </g>
  <g transform="translate(3.035 16.176)" id="g598">
    <text font-family="serif" font-size="2.2" text-anchor="start" fill="currentColor" id="text596"><tspan id="tspan594">Electric Bass </tspan></text>
  </g>
  <g transform="translate(3.035 19.176)" id="g604">
    <text font-family="serif" font-size="1.96" text-anchor="start" fill="currentColor" id="text602"><tspan id="tspan600">(Kevin Roche) </tspan></text>
  </g>
  <g transform="translate(1.055 6.853)" id="g610">
    <text font-family="serif" font-size="2.2" text-anchor="start" fill="currentColor" id="text608"><tspan id="tspan606">Electric Guitar </tspan></text>
  </g>
  <g transform="translate(1.055 9.853)" id="g616">
    <text font-family="serif" font-size="1.96" text-anchor="start" fill="currentColor" id="text614"><tspan id="tspan612">(Jamie Behar) </tspan></text>
  </g>
  <g transform="translate(31.308 9.221)" id="g620">
    <path transform="scale(.004 -.004)" d="M0 0c0 31 25 56 56 56s56-25 56-56-25-56-56-56S0-31 0 0Z" fill="currentColor" id="path618"/>
  </g>
  <g transform="translate(31.965 18.51)" id="g624">
    <path transform="scale(.004 -.004)" d="M0 0c0 31 25 56 56 56s56-25 56-56-25-56-56-56S0-31 0 0Z" fill="currentColor" id="path622"/>
  </g>
  <g transform="translate(31.308 8.221)" id="g628">
    <path transform="scale(.004 -.004)" d="M0 0c0 31 25 56 56 56s56-25 56-56-25-56-56-56S0-31 0 0Z" fill="currentColor" id="path626"/>
  </g>
  <g transform="translate(30.793 7.721)" id="g632">
    <rect x="-.065" y="-3" width=".13" height="6.814" ry=".04" fill="currentColor" id="rect630"/>
  </g>
  <g transform="translate(31.308 11.221)" id="g636">
    <path transform="scale(.004 -.004)" d="M0 0c0 31 25 56 56 56s56-25 56-56-25-56-56-56S0-31 0 0Z" fill="currentColor" id="path634"/>
  </g>
  <a style="color:inherit" id="a652" transform="translate(-1.26 -2.707)">
    <g transform="translate(26.287 6.518)" id="g640">
      <rect x="1.045" y="-2.673" width=".116" height="2.513" ry=".019" fill="currentColor" id="rect638"/>
    </g>
    <g transform="translate(26.287 6.518)" id="g644">
      <path transform="scale(.0036 -.0036)" d="M215 137c57 0 111-29 111-92 0-71-54-120-101-148-35-21-74-34-114-34C54-137 0-108 0-45 0 26 54 75 101 103c35 21 74 34 114 34z" fill="currentColor" id="path642"/>
    </g>
    <g transform="translate(27.448 7.007)" id="g650">
      <text font-family="serif" font-size="2.2" text-anchor="start" fill="currentColor" id="text648"><tspan id="tspan646"> = 185</tspan></text>
    </g>
  </a>
  <a style="color:inherit" id="a666" transform="translate(-1.26 -2.707)">
    <g transform="translate(26.287 28.717)" id="g660">
      <g id="g658">
        <path transform="scale(.004 -.004)" d="M175 487c18 0 58 31 58-3V117c0-48 28-94 73-94 8 0 12-5 12-11s-4-12-12-12c-44 0-87 13-131 13S88 0 44 0c-8 0-12 6-12 12s4 11 12 11c45 0 73 46 73 94v245c0 12-9 19-17 19-4 0-8-3-10-7L26 238c-3-6-7-9-12-9-8 0-16 6-16 14 0 2 1 5 2 7l117 250c3 6 10 3 16 0 13-6 27-13 42-13z" fill="currentColor" id="path654"/>
        <path transform="matrix(.004 0 0 -.004 1.263 0)" d="M175 487c18 0 58 31 58-3V117c0-48 28-94 73-94 8 0 12-5 12-11s-4-12-12-12c-44 0-87 13-131 13S88 0 44 0c-8 0-12 6-12 12s4 11 12 11c45 0 73 46 73 94v245c0 12-9 19-17 19-4 0-8-3-10-7L26 238c-3-6-7-9-12-9-8 0-16 6-16 14 0 2 1 5 2 7l117 250c3 6 10 3 16 0 13-6 27-13 42-13z" fill="currentColor" id="path656"/>
      </g>
    </g>
    <g transform="translate(26.748 30.732)" id="g664">
      <path transform="scale(.004 -.004)" d="M196 117h117c0-48 27-94 72-94 8 0 12-5 12-11s-4-12-12-12c-44 0-87 13-131 13S167 0 123 0c-8 0-12 6-12 12s4 11 12 11c45 0 73 46 73 94zm8 190c22 14 44 29 60 50 11 15 19 33 27 50 2 4 5 6 9 6 6 0 13-5 13-14V154h72c10 0 15-7 15-14s-5-15-15-15h-72v-8H196v8H29c-23 0-31 14-31 23 0 3 1 5 2 6 80 93 138 207 138 330 0 10 7 19 16 16 23-7 47-13 71-13s48 6 71 13c14 4 23-9 17-16L29 154h167v131c0 8 1 17 8 22z" fill="currentColor" id="path662"/>
    </g>
  </a>
  <g transform="translate(19.457 26.01)" id="g670">
    <path transform="scale(.004 -.004)" d="M490-250h-92c-6 0-10 4-10 10v480c0 6 4 10 10 10h92c6 0 10-4 10-10v-480c0-6-4-10-10-10zm-220 0h-93c-6 0-10 4-10 10v480c0 6 4 10 10 10h93c6 0 10-4 10-10v-480c0-6-4-10-10-10z" fill="currentColor" id="path668"/>
  </g>
  <a style="color:inherit" id="a676" transform="translate(-1.26 -2.707)">
    <g transform="translate(30.814 30.217)" id="g674">
      <path transform="scale(.004 -.004)" d="M218 136c55 0 108-28 108-89 0-71-55-121-102-149-35-21-75-34-116-34C53-136 0-108 0-47 0 24 55 74 102 102c35 21 75 34 116 34z" fill="currentColor" id="path672"/>
    </g>
  </a>
  <a style="color:inherit" id="a682" transform="translate(-1.26 -2.707)">
    <g transform="translate(30.814 26.217)" id="g680">
      <path transform="scale(.004 -.004)" d="M194 171c100 0 194-73 194-171s-94-171-194-171S0-98 0 0s94 171 194 171ZM166 0 70 84C48 60 36 30 36 0s12-60 34-84Zm28 24 95 83c-27 18-60 28-95 28s-69-10-96-28zm0-48-96-83c27-18 61-28 96-28s68 10 95 28zm27 24 97-84c22 24 33 54 33 84s-11 60-33 84z" fill="currentColor" id="path678"/>
    </g>
  </a>
  <a style="color:inherit" id="a688" transform="translate(-1.26 -2.707)">
    <g transform="translate(43.768 26.217)" id="g686">
      <path transform="scale(.004 -.004)" d="m163 36 119 97c3 2 6 3 9 3s7-1 10-3l20-16c3-3 5-8 5-12s-2-9-5-12L206 0l115-93c3-3 5-8 5-12s-2-9-5-12l-20-16c-3-2-7-3-10-3s-6 1-9 3L163-36 44-133c-3-2-6-3-9-3s-7 1-10 3L5-117c-3 3-5 8-5 12s2 9 5 12L120 0 5 93c-3 3-5 8-5 12s2 9 5 12l20 16c3 2 7 3 10 3s6-1 9-3z" fill="currentColor" id="path684"/>
    </g>
  </a>
  <a style="color:inherit" id="a694" transform="translate(-1.26 -2.707)">
    <g transform="translate(61.182 12.429)" id="g692">
      <path transform="scale(.004 -.004)" d="M218 136c55 0 108-28 108-89 0-71-55-121-102-149-35-21-75-34-116-34C53-136 0-108 0-47 0 24 55 74 102 102c35 21 75 34 116 34z" fill="currentColor" id="path690"/>
    </g>
  </a>
  <g transform="translate(58.01 26.01)" id="g698">
    <rect x="-.065" y="-5" width=".13" height="2.08" ry=".04" fill="currentColor" id="rect696"/>
  </g>
  <a style="color:inherit" id="a704" transform="translate(-1.26 -2.707)">
    <g transform="translate(58.03 26.217)" id="g702">
      <path transform="scale(.004 -.004)" d="m163 36 119 97c3 2 6 3 9 3s7-1 10-3l20-16c3-3 5-8 5-12s-2-9-5-12L206 0l115-93c3-3 5-8 5-12s-2-9-5-12l-20-16c-3-2-7-3-10-3s-6 1-9 3L163-36 44-133c-3-2-6-3-9-3s-7 1-10 3L5-117c-3 3-5 8-5 12s2 9 5 12L120 0 5 93c-3 3-5 8-5 12s2 9 5 12l20 16c3 2 7 3 10 3s6-1 9-3z" fill="currentColor" id="path700"/>
    </g>
  </a>
  <a style="color:inherit" id="a710" transform="translate(-1.26 -2.707)">
    <g transform="translate(61.182 10.929)" id="g708">
      <path transform="scale(.004 -.004)" d="M218 136c55 0 108-28 108-89 0-71-55-121-102-149-35-21-75-34-116-34C53-136 0-108 0-47 0 24 55 74 102 102c35 21 75 34 116 34z" fill="currentColor" id="path706"/>
    </g>
  </a>
  <g transform="translate(50.43 26.01)" id="g714">
    <rect x="-.065" y="-.314" width=".13" height="3.314" ry=".04" fill="currentColor" id="rect712"/>
  </g>
  <g transform="translate(52.119 25.51)" id="g718">
    <path transform="scale(.004 -.004)" d="M0 0c0 31 25 56 56 56s56-25 56-56-25-56-56-56S0-31 0 0Z" fill="currentColor" id="path716"/>
  </g>
  <g transform="translate(61.676 8.221)" id="g722">
    <path transform="scale(.004 -.004)" d="M0 0c0 31 25 56 56 56s56-25 56-56-25-56-56-56S0-31 0 0Z" fill="currentColor" id="path720"/>
  </g>
  <a style="color:inherit" id="a728" transform="translate(-1.26 -2.707)">
    <g transform="translate(64.333 26.217)" id="g726">
      <path transform="scale(.004 -.004)" d="m163 36 119 97c3 2 6 3 9 3s7-1 10-3l20-16c3-3 5-8 5-12s-2-9-5-12L206 0l115-93c3-3 5-8 5-12s-2-9-5-12l-20-16c-3-2-7-3-10-3s-6 1-9 3L163-36 44-133c-3-2-6-3-9-3s-7 1-10 3L5-117c-3 3-5 8-5 12s2 9 5 12L120 0 5 93c-3 3-5 8-5 12s2 9 5 12l20 16c3 2 7 3 10 3s6-1 9-3z" fill="currentColor" id="path724"/>
    </g>
  </a>
  <g transform="translate(59.987 26.01)" id="g732">
    <rect x="-.065" y="1.686" width=".13" height="2.647" ry=".04" fill="currentColor" id="rect730"/>
  </g>
  <g transform="translate(61.676 6.221)" id="g736">
    <path transform="scale(.004 -.004)" d="M0 0c0 31 25 56 56 56s56-25 56-56-25-56-56-56S0-31 0 0Z" fill="currentColor" id="path734"/>
  </g>
  <g transform="translate(64.312 26.01)" id="g740">
    <rect x="-.065" y="-5" width=".13" height="2.08" ry=".04" fill="currentColor" id="rect738"/>
  </g>
  <g transform="translate(61.16 7.721)" id="g744">
    <rect x="-.065" y="-4" width=".13" height="5.814" ry=".04" fill="currentColor" id="rect742"/>
  </g>
  <g transform="translate(61.676 9.221)" id="g748">
    <path transform="scale(.004 -.004)" d="M0 0c0 31 25 56 56 56s56-25 56-56-25-56-56-56S0-31 0 0Z" fill="currentColor" id="path746"/>
  </g>
  <a style="color:inherit" id="a754" transform="translate(-1.26 -2.707)">
    <g transform="translate(61.182 30.217)" id="g752">
      <path transform="scale(.004 -.004)" d="M218 136c55 0 108-28 108-89 0-71-55-121-102-149-35-21-75-34-116-34C53-136 0-108 0-47 0 24 55 74 102 102c35 21 75 34 116 34z" fill="currentColor" id="path750"/>
    </g>
  </a>
  <a style="color:inherit" id="a760" transform="translate(-1.26 -2.707)">
    <g transform="translate(61.182 9.429)" id="g758">
      <path transform="scale(.004 -.004)" d="M218 136c55 0 108-28 108-89 0-71-55-121-102-149-35-21-75-34-116-34C53-136 0-108 0-47 0 24 55 74 102 102c35 21 75 34 116 34z" fill="currentColor" id="path756"/>
    </g>
  </a>
  <g transform="translate(45.79 30.47)" id="g764">
    <path transform="scale(.004 -.004)" d="M0 0h-16v250H0Zm0 0v250c97 59 224 148 224 259 0 57-15 112-40 163-3 16 10 27 23 27 7 0 15-3 20-11 25-56 40-117 40-179C267 306 0 203 0 0Z" fill="currentColor" id="path762"/>
  </g>
  <a style="color:inherit" id="a770" transform="translate(-1.26 -2.707)">
    <g transform="translate(51.625 8.929)" id="g768">
      <path transform="scale(.004 -.004)" d="M218 136c55 0 108-28 108-89 0-71-55-121-102-149-35-21-75-34-116-34C53-136 0-108 0-47 0 24 55 74 102 102c35 21 75 34 116 34z" fill="currentColor" id="path766"/>
    </g>
  </a>
  <a style="color:inherit" id="a776" transform="translate(-1.26 -2.707)">
    <g transform="translate(51.625 9.929)" id="g774">
      <path transform="scale(.004 -.004)" d="M218 136c55 0 108-28 108-89 0-71-55-121-102-149-35-21-75-34-116-34C53-136 0-108 0-47 0 24 55 74 102 102c35 21 75 34 116 34z" fill="currentColor" id="path772"/>
    </g>
  </a>
  <a style="color:inherit" id="a782" transform="translate(-1.26 -2.707)">
    <g transform="translate(51.625 10.929)" id="g780">
      <path transform="scale(.004 -.004)" d="M218 136c55 0 108-28 108-89 0-71-55-121-102-149-35-21-75-34-116-34C53-136 0-108 0-47 0 24 55 74 102 102c35 21 75 34 116 34z" fill="currentColor" id="path778"/>
    </g>
  </a>
  <a style="color:inherit" id="a788" transform="translate(-1.26 -2.707)">
    <g transform="translate(51.625 26.217)" id="g786">
      <path transform="scale(.004 -.004)" d="m163 36 119 97c3 2 6 3 9 3s7-1 10-3l20-16c3-3 5-8 5-12s-2-9-5-12L206 0l115-93c3-3 5-8 5-12s-2-9-5-12l-20-16c-3-2-7-3-10-3s-6 1-9 3L163-36 44-133c-3-2-6-3-9-3s-7 1-10 3L5-117c-3 3-5 8-5 12s2 9 5 12L120 0 5 93c-3 3-5 8-5 12s2 9 5 12l20 16c3 2 7 3 10 3s6-1 9-3z" fill="currentColor" id="path784"/>
    </g>
  </a>
  <g transform="translate(45.724 26.01)" id="g792">
    <rect x="-.065" y="1.686" width=".13" height="2.814" ry=".04" fill="currentColor" id="rect790"/>
  </g>
  <a style="color:inherit" id="a798" transform="translate(-1.26 -2.707)">
    <g transform="translate(46.92 30.217)" id="g796">
      <path transform="scale(.004 -.004)" d="M218 136c55 0 108-28 108-89 0-71-55-121-102-149-35-21-75-34-116-34C53-136 0-108 0-47 0 24 55 74 102 102c35 21 75 34 116 34z" fill="currentColor" id="path794"/>
    </g>
  </a>
  <a style="color:inherit" id="a804" transform="translate(-1.26 -2.707)">
    <g transform="translate(51.625 28.217)" id="g802">
      <path transform="scale(.004 -.004)" d="M218 136c55 0 108-28 108-89 0-71-55-121-102-149-35-21-75-34-116-34C53-136 0-108 0-47 0 24 55 74 102 102c35 21 75 34 116 34z" fill="currentColor" id="path800"/>
    </g>
  </a>
  <g transform="translate(66.024 25.51)" id="g808">
    <path transform="scale(.002 -.002)" d="M-94 0c0-84 12-170 60-239 3-4 3-7 3-11 0-10-9-19-19-19-5 0-12 2-16 8-54 77-90 167-90 261s36 184 90 261c4 6 11 8 16 8 10 0 19-9 19-19 0-4 0-7-3-11C-82 170-94 84-94 0Z" fill="currentColor" id="path806"/>
  </g>
  <g transform="translate(67.728 25.51)" id="g812">
    <path transform="scale(.002 -.002)" d="M94 0c0 84-12 170-60 239-3 4-3 7-3 11 0 10 9 19 19 19 5 0 12-2 16-8 54-77 90-167 90-261s-36-184-90-261c-4-6-11-8-16-8-10 0-19 9-19 19 0 4 0 7 3 11C82-170 94-84 94 0z" fill="currentColor" id="path810"/>
  </g>
  <g transform="translate(51.604 26.01)" id="g816">
    <rect x="-.065" y="-5" width=".13" height="2.08" ry=".04" fill="currentColor" id="rect814"/>
  </g>
  <g transform="translate(43.747 26.01)" id="g820">
    <rect x="-.065" y="-5" width=".13" height="2.08" ry=".04" fill="currentColor" id="rect818"/>
  </g>
  <g transform="translate(52.119 6.221)" id="g824">
    <path transform="scale(.004 -.004)" d="M0 0c0 31 25 56 56 56s56-25 56-56-25-56-56-56S0-31 0 0Z" fill="currentColor" id="path822"/>
  </g>
  <g transform="translate(52.119 7.221)" id="g828">
    <path transform="scale(.004 -.004)" d="M0 0c0 31 25 56 56 56s56-25 56-56-25-56-56-56S0-31 0 0Z" fill="currentColor" id="path826"/>
  </g>
  <a style="color:inherit" id="a834" transform="translate(-1.26 -2.707)">
    <g transform="translate(67.484 28.217)" id="g832">
      <path transform="scale(.004 -.004)" d="M218 136c55 0 108-28 108-89 0-71-55-121-102-149-35-21-75-34-116-34C53-136 0-108 0-47 0 24 55 74 102 102c35 21 75 34 116 34z" fill="currentColor" id="path830"/>
    </g>
  </a>
  <g transform="translate(66.289 26.01)" id="g838">
    <rect x="-.065" y="-.314" width=".13" height="3.124" ry=".04" fill="currentColor" id="rect836"/>
  </g>
  <g transform="translate(50.43 7.721)" id="g842">
    <rect x="-.065" y="-1.314" width=".13" height="4.981" ry=".04" fill="currentColor" id="rect840"/>
  </g>
  <g transform="translate(52.119 8.221)" id="g846">
    <path transform="scale(.004 -.004)" d="M0 0c0 31 25 56 56 56s56-25 56-56-25-56-56-56S0-31 0 0Z" fill="currentColor" id="path844"/>
  </g>
  <g transform="translate(10.121 40.01)" id="g850">
    <path stroke-linejoin="round" stroke-linecap="round" stroke-width=".1" stroke="currentColor" id="line848" d="M.05 0h102.33"/>
  </g>
  <g transform="translate(10.121 39.01)" id="g854">
    <path stroke-linejoin="round" stroke-linecap="round" stroke-width=".1" stroke="currentColor" id="line852" d="M.05 0h102.33"/>
  </g>
  <g transform="translate(10.121 38.01)" id="g858">
    <path stroke-linejoin="round" stroke-linecap="round" stroke-width=".1" stroke="currentColor" id="line856" d="M.05 0h102.33"/>
  </g>
  <g transform="translate(10.121 37.01)" id="g862">
    <path stroke-linejoin="round" stroke-linecap="round" stroke-width=".1" stroke="currentColor" id="line860" d="M.05 0h102.33"/>
  </g>
  <g transform="translate(10.121 36.01)" id="g866">
    <path stroke-linejoin="round" stroke-linecap="round" stroke-width=".1" stroke="currentColor" id="line864" d="M.05 0h102.33"/>
  </g>
  <g transform="translate(110.71 37.51)" id="g870">
    <path transform="scale(.004 -.004)" d="M0 0c0 31 25 56 56 56s56-25 56-56-25-56-56-56S0-31 0 0Z" fill="currentColor" id="path868"/>
  </g>
  <g transform="translate(110.71 38.51)" id="g874">
    <path transform="scale(.004 -.004)" d="M0 0c0 31 25 56 56 56s56-25 56-56-25-56-56-56S0-31 0 0Z" fill="currentColor" id="path872"/>
  </g>
  <g transform="translate(111.95 38.01)" id="g878">
    <rect x="0" y="-2" width=".6" height="4" ry="0" fill="currentColor" id="rect876"/>
  </g>
  <g transform="translate(111.46 38.01)" id="g882">
    <rect x="0" y="-2" width=".19" height="4" ry="0" fill="currentColor" id="rect880"/>
  </g>
  <g transform="translate(17.831 56.534)" id="g886">
    <path transform="scale(.004 -.004)" d="M0 0c0 31 25 56 56 56s56-25 56-56-25-56-56-56S0-31 0 0Z" fill="currentColor" id="path884"/>
  </g>
  <g transform="translate(17.831 57.534)" id="g890">
    <path transform="scale(.004 -.004)" d="M0 0c0 31 25 56 56 56s56-25 56-56-25-56-56-56S0-31 0 0Z" fill="currentColor" id="path888"/>
  </g>
  <g transform="translate(17.341 57.034)" id="g894">
    <rect x="0" y="-2" width=".19" height="4" ry="0" fill="currentColor" id="rect892"/>
  </g>
  <g transform="translate(16.441 57.034)" id="g898">
    <rect x="0" y="-2" width=".6" height="4" ry="0" fill="currentColor" id="rect896"/>
  </g>
  <g transform="translate(110.71 47.534)" id="g902">
    <path transform="scale(.004 -.004)" d="M0 0c0 31 25 56 56 56s56-25 56-56-25-56-56-56S0-31 0 0Z" fill="currentColor" id="path900"/>
  </g>
  <g transform="translate(110.71 48.534)" id="g906">
    <path transform="scale(.004 -.004)" d="M0 0c0 31 25 56 56 56s56-25 56-56-25-56-56-56S0-31 0 0Z" fill="currentColor" id="path904"/>
  </g>
  <g transform="translate(111.95 48.034)" id="g910">
    <rect x="0" y="-2" width=".6" height="4" ry="0" fill="currentColor" id="rect908"/>
  </g>
  <g transform="translate(111.46 48.034)" id="g914">
    <rect x="0" y="-2" width=".19" height="4" ry="0" fill="currentColor" id="rect912"/>
  </g>
  <g transform="translate(17.831 47.534)" id="g918">
    <path transform="scale(.004 -.004)" d="M0 0c0 31 25 56 56 56s56-25 56-56-25-56-56-56S0-31 0 0Z" fill="currentColor" id="path916"/>
  </g>
  <g transform="translate(17.831 48.534)" id="g922">
    <path transform="scale(.004 -.004)" d="M0 0c0 31 25 56 56 56s56-25 56-56-25-56-56-56S0-31 0 0Z" fill="currentColor" id="path920"/>
  </g>
  <g transform="translate(17.341 48.034)" id="g926">
    <rect x="0" y="-2" width=".19" height="4" ry="0" fill="currentColor" id="rect924"/>
  </g>
  <g transform="translate(16.441 48.034)" id="g930">
    <rect x="0" y="-2" width=".6" height="4" ry="0" fill="currentColor" id="rect928"/>
  </g>
  <g transform="translate(110.71 56.534)" id="g934">
    <path transform="scale(.004 -.004)" d="M0 0c0 31 25 56 56 56s56-25 56-56-25-56-56-56S0-31 0 0Z" fill="currentColor" id="path932"/>
  </g>
  <g transform="translate(110.71 57.534)" id="g938">
    <path transform="scale(.004 -.004)" d="M0 0c0 31 25 56 56 56s56-25 56-56-25-56-56-56S0-31 0 0Z" fill="currentColor" id="path936"/>
  </g>
  <g transform="translate(111.95 57.034)" id="g942">
    <rect x="0" y="-2" width=".6" height="4" ry="0" fill="currentColor" id="rect940"/>
  </g>
  <g transform="translate(111.46 57.034)" id="g946">
    <rect x="0" y="-2" width=".19" height="4" ry="0" fill="currentColor" id="rect944"/>
  </g>
  <g transform="translate(17.831 37.51)" id="g950">
    <path transform="scale(.004 -.004)" d="M0 0c0 31 25 56 56 56s56-25 56-56-25-56-56-56S0-31 0 0Z" fill="currentColor" id="path948"/>
  </g>
  <g transform="translate(17.831 38.51)" id="g954">
    <path transform="scale(.004 -.004)" d="M0 0c0 31 25 56 56 56s56-25 56-56-25-56-56-56S0-31 0 0Z" fill="currentColor" id="path952"/>
  </g>
  <g transform="translate(17.341 38.01)" id="g958">
    <rect x="0" y="-2" width=".19" height="4" ry="0" fill="currentColor" id="rect956"/>
  </g>
  <g transform="translate(16.441 38.01)" id="g962">
    <rect x="0" y="-2" width=".6" height="4" ry="0" fill="currentColor" id="rect960"/>
  </g>
  <g transform="translate(10.121 59.034)" id="g966">
    <path stroke-linejoin="round" stroke-linecap="round" stroke-width=".1" stroke="currentColor" id="line964" d="M.05 0h102.33"/>
  </g>
  <g transform="translate(10.121 58.034)" id="g970">
    <path stroke-linejoin="round" stroke-linecap="round" stroke-width=".1" stroke="currentColor" id="line968" d="M.05 0h102.33"/>
  </g>
  <g transform="translate(10.121 57.034)" id="g974">
    <path stroke-linejoin="round" stroke-linecap="round" stroke-width=".1" stroke="currentColor" id="line972" d="M.05 0h102.33"/>
  </g>
  <g transform="translate(10.121 56.034)" id="g978">
    <path stroke-linejoin="round" stroke-linecap="round" stroke-width=".1" stroke="currentColor" id="line976" d="M.05 0h102.33"/>
  </g>
  <g transform="translate(10.121 55.034)" id="g982">
    <path stroke-linejoin="round" stroke-linecap="round" stroke-width=".1" stroke="currentColor" id="line980" d="M.05 0h102.33"/>
  </g>
  <g transform="translate(4.43 41.01)" id="g986">
    <rect x="15.014" y="-.1" width="1.956" height=".2" ry=".1" fill="currentColor" id="rect984"/>
  </g>
  <g transform="translate(4.43 42.01)" id="g990">
    <rect x="15.014" y="-.1" width="1.956" height=".2" ry=".1" fill="currentColor" id="rect988"/>
  </g>
  <g transform="translate(10.121 50.034)" id="g994">
    <path stroke-linejoin="round" stroke-linecap="round" stroke-width=".1" stroke="currentColor" id="line992" d="M.05 0h102.33"/>
  </g>
  <g transform="translate(10.121 49.034)" id="g998">
    <path stroke-linejoin="round" stroke-linecap="round" stroke-width=".1" stroke="currentColor" id="line996" d="M.05 0h102.33"/>
  </g>
  <g transform="translate(10.121 48.034)" id="g1002">
    <path stroke-linejoin="round" stroke-linecap="round" stroke-width=".1" stroke="currentColor" id="line1000" d="M.05 0h102.33"/>
  </g>
  <g transform="translate(10.121 47.034)" id="g1006">
    <path stroke-linejoin="round" stroke-linecap="round" stroke-width=".1" stroke="currentColor" id="line1004" d="M.05 0h102.33"/>
  </g>
  <g transform="translate(10.121 46.034)" id="g1010">
    <path stroke-linejoin="round" stroke-linecap="round" stroke-width=".1" stroke="currentColor" id="line1008" d="M.05 0h102.33"/>
  </g>
  <a style="color:inherit" id="a1016" transform="translate(-1.26 -2.707)">
    <g transform="translate(80.135 40.717)" id="g1014">
      <path transform="scale(.004 -.004)" d="M218 136c55 0 108-28 108-89 0-71-55-121-102-149-35-21-75-34-116-34C53-136 0-108 0-47 0 24 55 74 102 102c35 21 75 34 116 34z" fill="currentColor" id="path1012"/>
    </g>
  </a>
  <a style="color:inherit" id="a1022" transform="translate(-1.26 -2.707)">
    <g transform="translate(80.135 42.217)" id="g1020">
      <path transform="scale(.004 -.004)" d="M218 136c55 0 108-28 108-89 0-71-55-121-102-149-35-21-75-34-116-34C53-136 0-108 0-47 0 24 55 74 102 102c35 21 75 34 116 34z" fill="currentColor" id="path1018"/>
    </g>
  </a>
  <g transform="translate(76.69 57.034)" id="g1026">
    <rect x="-.065" y="-5" width=".13" height="2.08" ry=".04" fill="currentColor" id="rect1024"/>
  </g>
  <a style="color:inherit" id="a1032" transform="translate(-1.26 -2.707)">
    <g transform="translate(76.71 57.242)" id="g1030">
      <path transform="scale(.004 -.004)" d="m163 36 119 97c3 2 6 3 9 3s7-1 10-3l20-16c3-3 5-8 5-12s-2-9-5-12L206 0l115-93c3-3 5-8 5-12s-2-9-5-12l-20-16c-3-2-7-3-10-3s-6 1-9 3L163-36 44-133c-3-2-6-3-9-3s-7 1-10 3L5-117c-3 3-5 8-5 12s2 9 5 12L120 0 5 93c-3 3-5 8-5 12s2 9 5 12l20 16c3 2 7 3 10 3s6-1 9-3z" fill="currentColor" id="path1028"/>
    </g>
  </a>
  <g transform="translate(80.629 39.51)" id="g1036">
    <path transform="scale(.004 -.004)" d="M0 0c0 31 25 56 56 56s56-25 56-56-25-56-56-56S0-31 0 0Z" fill="currentColor" id="path1034"/>
  </g>
  <g transform="translate(72.091 57.034)" id="g1040">
    <rect x="-.065" y="1.686" width=".13" height="2.647" ry=".04" fill="currentColor" id="rect1038"/>
  </g>
  <a style="color:inherit" id="a1046" transform="translate(-1.26 -2.707)">
    <g transform="translate(73.287 61.242)" id="g1044">
      <path transform="scale(.004 -.004)" d="M218 136c55 0 108-28 108-89 0-71-55-121-102-149-35-21-75-34-116-34C53-136 0-108 0-47 0 24 55 74 102 102c35 21 75 34 116 34z" fill="currentColor" id="path1042"/>
    </g>
  </a>
  <g transform="translate(67.087 61.494)" id="g1050">
    <path transform="scale(.004 -.004)" d="M0 0h-16v250H0Zm0 0v250c97 59 224 148 224 259 0 57-15 112-40 163-3 16 10 27 23 27 7 0 15-3 20-11 25-56 40-117 40-179C267 306 0 203 0 0Z" fill="currentColor" id="path1048"/>
  </g>
  <g transform="translate(67.022 57.034)" id="g1054">
    <rect x="-.065" y="1.686" width=".13" height="2.814" ry=".04" fill="currentColor" id="rect1052"/>
  </g>
  <g transform="translate(83.538 57.034)" id="g1058">
    <rect x="-.065" y="-5" width=".13" height="2.08" ry=".04" fill="currentColor" id="rect1056"/>
  </g>
  <a style="color:inherit" id="a1064" transform="translate(-1.26 -2.707)">
    <g transform="translate(83.56 57.242)" id="g1062">
      <path transform="scale(.004 -.004)" d="m163 36 119 97c3 2 6 3 9 3s7-1 10-3l20-16c3-3 5-8 5-12s-2-9-5-12L206 0l115-93c3-3 5-8 5-12s-2-9-5-12l-20-16c-3-2-7-3-10-3s-6 1-9 3L163-36 44-133c-3-2-6-3-9-3s-7 1-10 3L5-117c-3 3-5 8-5 12s2 9 5 12L120 0 5 93c-3 3-5 8-5 12s2 9 5 12l20 16c3 2 7 3 10 3s6-1 9-3z" fill="currentColor" id="path1060"/>
    </g>
  </a>
  <g transform="translate(78.94 57.034)" id="g1068">
    <rect x="-.065" y="-.314" width=".13" height="3.314" ry=".04" fill="currentColor" id="rect1066"/>
  </g>
  <a style="color:inherit" id="a1074" transform="translate(-1.26 -2.707)">
    <g transform="translate(80.135 39.217)" id="g1072">
      <path transform="scale(.004 -.004)" d="M218 136c55 0 108-28 108-89 0-71-55-121-102-149-35-21-75-34-116-34C53-136 0-108 0-47 0 24 55 74 102 102c35 21 75 34 116 34z" fill="currentColor" id="path1070"/>
    </g>
  </a>
  <g transform="translate(80.629 36.51)" id="g1078">
    <path transform="scale(.004 -.004)" d="M0 0c0 31 25 56 56 56s56-25 56-56-25-56-56-56S0-31 0 0Z" fill="currentColor" id="path1076"/>
  </g>
  <g transform="translate(80.629 37.51)" id="g1082">
    <path transform="scale(.004 -.004)" d="M0 0c0 31 25 56 56 56s56-25 56-56-25-56-56-56S0-31 0 0Z" fill="currentColor" id="path1080"/>
  </g>
  <g transform="translate(78.94 38.01)" id="g1086">
    <rect x="-.065" y="-1.314" width=".13" height="5.647" ry=".04" fill="currentColor" id="rect1084"/>
  </g>
  <a style="color:inherit" id="a1092" transform="translate(-1.26 -2.707)">
    <g transform="translate(86.983 61.242)" id="g1090">
      <path transform="scale(.004 -.004)" d="M218 136c55 0 108-28 108-89 0-71-55-121-102-149-35-21-75-34-116-34C53-136 0-108 0-47 0 24 55 74 102 102c35 21 75 34 116 34z" fill="currentColor" id="path1088"/>
    </g>
  </a>
  <a style="color:inherit" id="a1098" transform="translate(-1.26 -2.707)">
    <g transform="translate(80.135 59.242)" id="g1096">
      <path transform="scale(.004 -.004)" d="M218 136c55 0 108-28 108-89 0-71-55-121-102-149-35-21-75-34-116-34C53-136 0-108 0-47 0 24 55 74 102 102c35 21 75 34 116 34z" fill="currentColor" id="path1094"/>
    </g>
  </a>
  <a style="color:inherit" id="a1104" transform="translate(-1.26 -2.707)">
    <g transform="translate(65.28 59.242)" id="g1102">
      <path transform="scale(.004 -.004)" d="M218 136c55 0 108-28 108-89 0-71-55-121-102-149-35-21-75-34-116-34C53-136 0-108 0-47 0 24 55 74 102 102c35 21 75 34 116 34z" fill="currentColor" id="path1100"/>
    </g>
  </a>
  <a style="color:inherit" id="a1110" transform="translate(-1.26 -2.707)">
    <g transform="translate(66.977 39.217)" id="g1108">
      <path transform="scale(.004 -.004)" d="M218 136c55 0 108-28 108-89 0-71-55-121-102-149-35-21-75-34-116-34C53-136 0-108 0-47 0 24 55 74 102 102c35 21 75 34 116 34z" fill="currentColor" id="path1106"/>
    </g>
  </a>
  <a style="color:inherit" id="a1116" transform="translate(-1.26 -2.707)">
    <g transform="translate(68.217 40.717)" id="g1114">
      <path transform="scale(.004 -.004)" d="M218 136c55 0 108-28 108-89 0-71-55-121-102-149-35-21-75-34-116-34C53-136 0-108 0-47 0 24 55 74 102 102c35 21 75 34 116 34z" fill="currentColor" id="path1112"/>
    </g>
  </a>
  <a style="color:inherit" id="a1122" transform="translate(-1.26 -2.707)">
    <g transform="translate(68.217 42.217)" id="g1120">
      <path transform="scale(.004 -.004)" d="M218 136c55 0 108-28 108-89 0-71-55-121-102-149-35-21-75-34-116-34C53-136 0-108 0-47 0 24 55 74 102 102c35 21 75 34 116 34z" fill="currentColor" id="path1118"/>
    </g>
  </a>
  <g transform="translate(63.82 56.534)" id="g1126">
    <path transform="scale(.002 -.002)" d="M-94 0c0-84 12-170 60-239 3-4 3-7 3-11 0-10-9-19-19-19-5 0-12 2-16 8-54 77-90 167-90 261s36 184 90 261c4 6 11 8 16 8 10 0 19-9 19-19 0-4 0-7-3-11C-82 170-94 84-94 0Z" fill="currentColor" id="path1124"/>
  </g>
  <g transform="translate(65.524 56.534)" id="g1130">
    <path transform="scale(.002 -.002)" d="M94 0c0 84-12 170-60 239-3 4-3 7-3 11 0 10 9 19 19 19 5 0 12-2 16-8 54-77 90-167 90-261s-36-184-90-261c-4-6-11-8-16-8-10 0-19 9-19 19 0 4 0 7 3 11C82-170 94-84 94 0z" fill="currentColor" id="path1128"/>
  </g>
  <g transform="translate(64.085 57.034)" id="g1134">
    <rect x="-.065" y="-.314" width=".13" height="3.124" ry=".04" fill="currentColor" id="rect1132"/>
  </g>
  <a style="color:inherit" id="a1140" transform="translate(-1.26 -2.707)">
    <g transform="translate(68.217 38.717)" id="g1138">
      <path transform="scale(.004 -.004)" d="M218 136c55 0 108-28 108-89 0-71-55-121-102-149-35-21-75-34-116-34C53-136 0-108 0-47 0 24 55 74 102 102c35 21 75 34 116 34z" fill="currentColor" id="path1136"/>
    </g>
  </a>
  <g transform="translate(60.632 56.534)" id="g1144">
    <path transform="scale(.002 -.002)" d="M-94 0c0-84 12-170 60-239 3-4 3-7 3-11 0-10-9-19-19-19-5 0-12 2-16 8-54 77-90 167-90 261s36 184 90 261c4 6 11 8 16 8 10 0 19-9 19-19 0-4 0-7-3-11C-82 170-94 84-94 0Z" fill="currentColor" id="path1142"/>
  </g>
  <g transform="translate(62.337 56.534)" id="g1148">
    <path transform="scale(.002 -.002)" d="M94 0c0 84-12 170-60 239-3 4-3 7-3 11 0 10 9 19 19 19 5 0 12-2 16-8 54-77 90-167 90-261s-36-184-90-261c-4-6-11-8-16-8-10 0-19 9-19 19 0 4 0 7 3 11C82-170 94-84 94 0z" fill="currentColor" id="path1146"/>
  </g>
  <g transform="translate(60.897 57.034)" id="g1152">
    <rect x="-.065" y="-.314" width=".13" height="3.124" ry=".04" fill="currentColor" id="rect1150"/>
  </g>
  <a style="color:inherit" id="a1158" transform="translate(-1.26 -2.707)">
    <g transform="translate(62.093 59.242)" id="g1156">
      <path transform="scale(.004 -.004)" d="M218 136c55 0 108-28 108-89 0-71-55-121-102-149-35-21-75-34-116-34C53-136 0-108 0-47 0 24 55 74 102 102c35 21 75 34 116 34z" fill="currentColor" id="path1154"/>
    </g>
  </a>
  <a style="color:inherit" id="a1164" transform="translate(-1.26 -2.707)">
    <g transform="translate(21.03 50.742)" id="g1162">
      <path stroke-width=".08" stroke-linejoin="round" stroke-linecap="round" stroke="currentColor" fill="currentColor" d="M.61-2.545c1.055-1.17 3.806-1.44 5.07-.5v0c-1.252-.821-4.004-.55-5.07.5z" id="path1160"/>
    </g>
  </a>
  <g transform="translate(68.71 35.51)" id="g1168">
    <path transform="scale(.004 -.004)" d="M0 0c0 31 25 56 56 56s56-25 56-56-25-56-56-56S0-31 0 0Z" fill="currentColor" id="path1166"/>
  </g>
  <g transform="translate(68.196 57.034)" id="g1172">
    <rect x="-.065" y="-5" width=".13" height="2.08" ry=".04" fill="currentColor" id="rect1170"/>
  </g>
  <g transform="translate(68.269 48.034)" id="g1176">
    <rect x="-.065" y="-2.5" width=".13" height="3.241" ry=".04" fill="currentColor" id="rect1174"/>
  </g>
  <g transform="translate(68.784 48.534)" id="g1180">
    <path transform="scale(.004 -.004)" d="M0 0c0 31 25 56 56 56s56-25 56-56-25-56-56-56S0-31 0 0Z" fill="currentColor" id="path1178"/>
  </g>
  <g transform="translate(68.71 36.51)" id="g1184">
    <path transform="scale(.004 -.004)" d="M0 0c0 31 25 56 56 56s56-25 56-56-25-56-56-56S0-31 0 0Z" fill="currentColor" id="path1182"/>
  </g>
  <g transform="translate(68.71 37.51)" id="g1188">
    <path transform="scale(.004 -.004)" d="M0 0c0 31 25 56 56 56s56-25 56-56-25-56-56-56S0-31 0 0Z" fill="currentColor" id="path1186"/>
  </g>
  <g transform="translate(67.022 38.01)" id="g1192">
    <rect x="-.065" y="-1.814" width=".13" height="6.147" ry=".04" fill="currentColor" id="rect1190"/>
  </g>
  <g transform="translate(68.71 39.51)" id="g1196">
    <path transform="scale(.004 -.004)" d="M0 0c0 31 25 56 56 56s56-25 56-56-25-56-56-56S0-31 0 0Z" fill="currentColor" id="path1194"/>
  </g>
  <a style="color:inherit" id="a1202" transform="translate(-1.26 -2.707)">
    <g transform="translate(68.217 61.242)" id="g1200">
      <path transform="scale(.004 -.004)" d="M218 136c55 0 108-28 108-89 0-71-55-121-102-149-35-21-75-34-116-34C53-136 0-108 0-47 0 24 55 74 102 102c35 21 75 34 116 34z" fill="currentColor" id="path1198"/>
    </g>
  </a>
  <a style="color:inherit" id="a1208" transform="translate(-1.26 -2.707)">
    <g transform="translate(68.217 57.242)" id="g1206">
      <path transform="scale(.004 -.004)" d="m163 36 119 97c3 2 6 3 9 3s7-1 10-3l20-16c3-3 5-8 5-12s-2-9-5-12L206 0l115-93c3-3 5-8 5-12s-2-9-5-12l-20-16c-3-2-7-3-10-3s-6 1-9 3L163-36 44-133c-3-2-6-3-9-3s-7 1-10 3L5-117c-3 3-5 8-5 12s2 9 5 12L120 0 5 93c-3 3-5 8-5 12s2 9 5 12l20 16c3 2 7 3 10 3s6-1 9-3z" fill="currentColor" id="path1204"/>
    </g>
  </a>
  <a style="color:inherit" id="a1214" transform="translate(-1.26 -2.707)">
    <g transform="translate(68.217 51.742)" id="g1212">
      <path transform="scale(.004 -.004)" d="M314 65c0 24-21 41-42 41-4 0-8 0-12-1-31-9-78-40-115-64S61-12 41-37c-7-8-10-18-10-28 0-24 21-41 42-41 4 0 8 0 12 1 31 9 77 40 114 64s84 53 104 78c7 8 11 18 11 28zm-52 71c46 0 82-21 82-71 0-19-4-39-10-57-12-37-32-72-64-94-53-36-113-50-187-50-46 0-83 21-83 71C0-46 5-26 11-8c12 37 31 72 63 94 53 36 114 50 188 50z" fill="currentColor" id="path1210"/>
    </g>
  </a>
  <g transform="translate(105.771 61.494)" id="g1218">
    <path transform="scale(.004 -.004)" d="M0 0h-16v250H0Zm0 0v250c97 59 224 148 224 259 0 57-15 112-40 163-3 16 10 27 23 27 7 0 15-3 20-11 25-56 40-117 40-179C267 306 0 203 0 0Z" fill="currentColor" id="path1216"/>
  </g>
  <g transform="translate(105.706 57.034)" id="g1222">
    <rect x="-.065" y="1.686" width=".13" height="2.814" ry=".04" fill="currentColor" id="rect1220"/>
  </g>
  <a style="color:inherit" id="a1228" transform="translate(-1.26 -2.707)">
    <g transform="translate(106.901 61.242)" id="g1226">
      <path transform="scale(.004 -.004)" d="M218 136c55 0 108-28 108-89 0-71-55-121-102-149-35-21-75-34-116-34C53-136 0-108 0-47 0 24 55 74 102 102c35 21 75 34 116 34z" fill="currentColor" id="path1224"/>
    </g>
  </a>
  <g transform="translate(102.272 57.034)" id="g1232">
    <rect x="-.065" y="-4.667" width=".13" height="2.274" ry=".04" fill="currentColor" id="rect1230"/>
  </g>
  <g transform="translate(100.94 48.034)" id="g1236">
    <rect x="-.065" y="-.814" width=".13" height="3.314" ry=".04" fill="currentColor" id="rect1234"/>
  </g>
  <a style="color:inherit" id="a1242" transform="translate(-1.26 -2.707)">
    <g transform="translate(5.69 50.742)" id="g1240">
      <path stroke-linejoin="round" stroke-linecap="round" stroke-width=".1" stroke="currentColor" id="line1238" d="m17.14-1.566 2.774-.368"/>
    </g>
  </a>
  <g transform="translate(60.832 59.034)" id="g1246">
    <path stroke-linejoin="round" stroke-linecap="round" stroke-width=".08" fill="currentColor" stroke="currentColor" id="polygon1244" d="M.04.2v-.4h3.237v.4z"/>
  </g>
  <g transform="translate(60.832 59.844)" id="g1250">
    <path stroke-linejoin="round" stroke-linecap="round" stroke-width=".08" fill="currentColor" stroke="currentColor" id="polygon1248" d="M.04.2v-.4h3.237v.4z"/>
  </g>
  <g transform="translate(89.993 44.77)" id="g1256">
    <text font-family="serif" font-weight="bold" font-style="italic" font-size="2.2" text-anchor="start" fill="currentColor" id="text1254"><tspan id="tspan1252">8</tspan></text>
  </g>
  <g transform="translate(91.83 43.984)" id="g1260">
    <path stroke-linejoin="round" stroke-linecap="round" stroke-width=".1" stroke="currentColor" id="line1258" d="M10.95 0v.8"/>
  </g>
  <g transform="translate(91.83 43.984)" id="g1264">
    <path stroke-linejoin="round" stroke-linecap="round" stroke-width=".1" stroke="currentColor" id="line1262" d="M0 0h0"/>
  </g>
  <g transform="translate(91.83 43.984)" id="g1268">
    <path stroke-linejoin="round" stroke-linecap="round" stroke-width=".1" stroke="currentColor" stroke-dasharray="0.290709, 0.678321" id="line1266" d="M0 0h10.95"/>
  </g>
  <g transform="translate(100.94 38.01)" id="g1272">
    <rect x="-.065" y="-1.814" width=".13" height="5.147" ry=".04" fill="currentColor" id="rect1270"/>
  </g>
  <a style="color:inherit" id="a1278" transform="translate(-1.26 -2.707)">
    <g transform="translate(92.053 59.242)" id="g1276">
      <path transform="scale(.004 -.004)" d="M218 136c55 0 108-28 108-89 0-71-55-121-102-149-35-21-75-34-116-34C53-136 0-108 0-47 0 24 55 74 102 102c35 21 75 34 116 34z" fill="currentColor" id="path1274"/>
    </g>
  </a>
  <g transform="translate(90.858 48.034)" id="g1282">
    <rect x="-.065" y="-1.314" width=".13" height="3.314" ry=".04" fill="currentColor" id="rect1280"/>
  </g>
  <g transform="translate(90.858 38.01)" id="g1286">
    <rect x="-.065" y="-2.314" width=".13" height="5.647" ry=".04" fill="currentColor" id="rect1284"/>
  </g>
  <a style="color:inherit" id="a1292" transform="translate(-1.26 -2.707)">
    <g transform="translate(92.053 56.742)" id="g1290">
      <path transform="scale(.004 -.004)" d="M72-250 189 76c-34-12-69-22-105-22-46 0-87 33-87 79 0 40 33 72 73 72 25 0 48-15 56-39 10-28 6-59 35-59 16 0 54 48 61 63 6 12 23 12 28 0L127-250c-8-7-17-10-27-10s-20 3-28 10z" fill="currentColor" id="path1288"/>
    </g>
  </a>
  <a style="color:inherit" id="a1298" transform="translate(-1.26 -2.707)">
    <g transform="translate(92.053 49.242)" id="g1296">
      <path transform="scale(.004 -.004)" d="M218 136c55 0 108-28 108-89 0-71-55-121-102-149-35-21-75-34-116-34C53-136 0-108 0-47 0 24 55 74 102 102c35 21 75 34 116 34z" fill="currentColor" id="path1294"/>
    </g>
  </a>
  <a style="color:inherit" id="a1304" transform="translate(-1.26 -2.707)">
    <g transform="translate(92.053 38.217)" id="g1302">
      <path transform="scale(.004 -.004)" d="M218 136c55 0 108-28 108-89 0-71-55-121-102-149-35-21-75-34-116-34C53-136 0-108 0-47 0 24 55 74 102 102c35 21 75 34 116 34z" fill="currentColor" id="path1300"/>
    </g>
  </a>
  <a style="color:inherit" id="a1310" transform="translate(-1.26 -2.707)">
    <g transform="translate(92.053 39.217)" id="g1308">
      <path transform="scale(.004 -.004)" d="M218 136c55 0 108-28 108-89 0-71-55-121-102-149-35-21-75-34-116-34C53-136 0-108 0-47 0 24 55 74 102 102c35 21 75 34 116 34z" fill="currentColor" id="path1306"/>
    </g>
  </a>
  <a style="color:inherit" id="a1316" transform="translate(-1.26 -2.707)">
    <g transform="translate(92.053 40.717)" id="g1314">
      <path transform="scale(.004 -.004)" d="M218 136c55 0 108-28 108-89 0-71-55-121-102-149-35-21-75-34-116-34C53-136 0-108 0-47 0 24 55 74 102 102c35 21 75 34 116 34z" fill="currentColor" id="path1312"/>
    </g>
  </a>
  <g transform="translate(85.853 61.494)" id="g1320">
    <path transform="scale(.004 -.004)" d="M0 0h-16v250H0Zm0 0v250c97 59 224 148 224 259 0 57-15 112-40 163-3 16 10 27 23 27 7 0 15-3 20-11 25-56 40-117 40-179C267 306 0 203 0 0Z" fill="currentColor" id="path1318"/>
  </g>
  <a style="color:inherit" id="a1326" transform="translate(-1.26 -2.707)">
    <g transform="translate(102.135 61.742)" id="g1324">
      <path transform="scale(.004 -.004)" d="M72-250 189 76c-34-12-69-22-105-22-46 0-87 33-87 79 0 40 33 72 73 72 25 0 48-15 56-39 10-28 6-59 35-59 16 0 54 48 61 63 6 12 23 12 28 0L127-250c-8-7-17-10-27-10s-20 3-28 10z" fill="currentColor" id="path1322"/>
    </g>
  </a>
  <a style="color:inherit" id="a1332" transform="translate(-1.26 -2.707)">
    <g transform="translate(102.135 57.742)" id="g1330">
      <path transform="scale(.004 -.004)" d="M328 136c19 0 37-18 37-38 0-37-62-63-85-101-25-42-32-96-73-124-9-6-18-9-28-9-23 0-48 12-73 12-23 0-48-12-69-12-19 0-37 18-37 38C0-61 62-35 85 3c25 42 32 96 73 124 9 6 19 9 29 9 23 0 47-12 72-12 23 0 48 12 69 12z" fill="currentColor" id="path1328"/>
    </g>
  </a>
  <a style="color:inherit" id="a1338" transform="translate(-1.26 -2.707)">
    <g transform="translate(102.135 49.742)" id="g1336">
      <path transform="scale(.004 -.004)" d="M218 136c55 0 108-28 108-89 0-71-55-121-102-149-35-21-75-34-116-34C53-136 0-108 0-47 0 24 55 74 102 102c35 21 75 34 116 34z" fill="currentColor" id="path1334"/>
    </g>
  </a>
  <a style="color:inherit" id="a1344" transform="translate(-1.26 -2.707)">
    <g transform="translate(102.135 38.717)" id="g1342">
      <path transform="scale(.004 -.004)" d="M218 136c55 0 108-28 108-89 0-71-55-121-102-149-35-21-75-34-116-34C53-136 0-108 0-47 0 24 55 74 102 102c35 21 75 34 116 34z" fill="currentColor" id="path1340"/>
    </g>
  </a>
  <a style="color:inherit" id="a1350" transform="translate(-1.26 -2.707)">
    <g transform="translate(100.896 39.217)" id="g1348">
      <path transform="scale(.004 -.004)" d="M218 136c55 0 108-28 108-89 0-71-55-121-102-149-35-21-75-34-116-34C53-136 0-108 0-47 0 24 55 74 102 102c35 21 75 34 116 34z" fill="currentColor" id="path1346"/>
    </g>
  </a>
  <a style="color:inherit" id="a1356" transform="translate(-1.26 -2.707)">
    <g transform="translate(102.135 40.717)" id="g1354">
      <path transform="scale(.004 -.004)" d="M218 136c55 0 108-28 108-89 0-71-55-121-102-149-35-21-75-34-116-34C53-136 0-108 0-47 0 24 55 74 102 102c35 21 75 34 116 34z" fill="currentColor" id="path1352"/>
    </g>
  </a>
  <g transform="translate(97.11 51.574)" id="g1360">
    <path transform="scale(.004 -.004)" d="M0 0v-250h-16V0Zm0 0c0-197 207-336 207-533 0-71-15-141-41-207-5-8-13-12-20-12-13 0-26 11-23 27 26 61 42 126 42 192 0 103-94 208-165 283z" fill="currentColor" id="path1358"/>
  </g>
  <g transform="translate(85.788 57.034)" id="g1364">
    <rect x="-.065" y="1.686" width=".13" height="2.814" ry=".04" fill="currentColor" id="rect1362"/>
  </g>
  <g transform="translate(97.045 57.034)" id="g1368">
    <rect x="-.065" y="-5.5" width=".13" height="3" ry=".04" fill="currentColor" id="rect1366"/>
  </g>
  <a style="color:inherit" id="a1374" transform="translate(-1.26 -2.707)">
    <g transform="translate(96.819 57.242)" id="g1372">
      <path transform="scale(.004 -.004)" d="M194 171c100 0 194-73 194-171s-94-171-194-171S0-98 0 0s94 171 194 171ZM166 0 70 84C48 60 36 30 36 0s12-60 34-84Zm28 24 95 83c-27 18-60 28-95 28s-69-10-96-28zm0-48-96-83c27-18 61-28 96-28s68 10 95 28zm27 24 97-84c22 24 33 54 33 84s-11 60-33 84z" fill="currentColor" id="path1370"/>
    </g>
  </a>
  <g transform="translate(90.858 57.034)" id="g1378">
    <rect x="-.065" y="-.314" width=".13" height="3.314" ry=".04" fill="currentColor" id="rect1376"/>
  </g>
  <a style="color:inherit" id="a1384" transform="translate(-1.26 -2.707)">
    <g transform="translate(29.525 57.242)" id="g1382">
      <path transform="scale(.004 -.004)" d="m163 36 119 97c3 2 6 3 9 3s7-1 10-3l20-16c3-3 5-8 5-12s-2-9-5-12L206 0l115-93c3-3 5-8 5-12s-2-9-5-12l-20-16c-3-2-7-3-10-3s-6 1-9 3L163-36 44-133c-3-2-6-3-9-3s-7 1-10 3L5-117c-3 3-5 8-5 12s2 9 5 12L120 0 5 93c-3 3-5 8-5 12s2 9 5 12l20 16c3 2 7 3 10 3s6-1 9-3z" fill="currentColor" id="path1380"/>
    </g>
  </a>
  <g transform="translate(24.905 48.034)" id="g1388">
    <rect x="-.065" y="-1.814" width=".13" height="3.314" ry=".04" fill="currentColor" id="rect1386"/>
  </g>
  <a style="color:inherit" id="a1394" transform="translate(-1.26 -2.707)">
    <g transform="translate(26.1 48.742)" id="g1392">
      <path transform="scale(.004 -.004)" d="M218 136c55 0 108-28 108-89 0-71-55-121-102-149-35-21-75-34-116-34C53-136 0-108 0-47 0 24 55 74 102 102c35 21 75 34 116 34z" fill="currentColor" id="path1390"/>
    </g>
  </a>
  <g transform="translate(19.57 42.01)" id="g1398">
    <path transform="scale(.002 -.002)" d="M-94 0c0-84 12-170 60-239 3-4 3-7 3-11 0-10-9-19-19-19-5 0-12 2-16 8-54 77-90 167-90 261s36 184 90 261c4 6 11 8 16 8 10 0 19-9 19-19 0-4 0-7-3-11C-82 170-94 84-94 0Z" fill="currentColor" id="path1396"/>
  </g>
  <g transform="translate(22.175 42.01)" id="g1402">
    <path transform="scale(.002 -.002)" d="M94 0c0 84-12 170-60 239-3 4-3 7-3 11 0 10 9 19 19 19 5 0 12-2 16-8 54-77 90-167 90-261s-36-184-90-261c-4-6-11-8-16-8-10 0-19 9-19 19 0 4 0 7 3 11C82-170 94-84 94 0z" fill="currentColor" id="path1400"/>
  </g>
  <g transform="translate(29.504 57.034)" id="g1406">
    <rect x="-.065" y="-5" width=".13" height="2.08" ry=".04" fill="currentColor" id="rect1404"/>
  </g>
  <g transform="translate(19.835 57.034)" id="g1410">
    <rect x="-.065" y="1.686" width=".13" height="2.647" ry=".04" fill="currentColor" id="rect1408"/>
  </g>
  <g transform="translate(21.525 58.534)" id="g1414">
    <path transform="scale(.004 -.004)" d="M0 0c0 31 25 56 56 56s56-25 56-56-25-56-56-56S0-31 0 0Z" fill="currentColor" id="path1412"/>
  </g>
  <g transform="translate(21.256 57.034)" id="g1418">
    <rect x="-.065" y="-5" width=".13" height="2.5" ry=".04" fill="currentColor" id="rect1416"/>
  </g>
  <g transform="translate(32.928 38.01)" id="g1422">
    <rect x="-.065" y="-3.667" width=".13" height="5.481" ry=".04" fill="currentColor" id="rect1420"/>
  </g>
  <g transform="translate(31.754 48.034)" id="g1426">
    <rect x="-.065" y="-.314" width=".13" height="3.314" ry=".04" fill="currentColor" id="rect1424"/>
  </g>
  <g transform="translate(33.443 37.51)" id="g1430">
    <path transform="scale(.004 -.004)" d="M0 0c0 31 25 56 56 56s56-25 56-56-25-56-56-56S0-31 0 0Z" fill="currentColor" id="path1428"/>
  </g>
  <g transform="translate(33.443 38.51)" id="g1434">
    <path transform="scale(.004 -.004)" d="M0 0c0 31 25 56 56 56s56-25 56-56-25-56-56-56S0-31 0 0Z" fill="currentColor" id="path1432"/>
  </g>
  <g transform="translate(19.9 49.994)" id="g1438">
    <path transform="scale(.004 -.004)" d="M0 0h-16v250H0Zm0 0v250c97 59 224 148 224 259 0 57-15 112-40 163-3 16 10 27 23 27 7 0 15-3 20-11 25-56 40-117 40-179C267 306 0 203 0 0Z" fill="currentColor" id="path1436"/>
  </g>
  <g transform="translate(33.443 39.51)" id="g1442">
    <path transform="scale(.004 -.004)" d="M0 0c0 31 25 56 56 56s56-25 56-56-25-56-56-56S0-31 0 0Z" fill="currentColor" id="path1440"/>
  </g>
  <a style="color:inherit" id="a1448" transform="translate(-1.26 -2.707)">
    <g transform="translate(32.949 61.242)" id="g1446">
      <path transform="scale(.004 -.004)" d="M218 136c55 0 108-28 108-89 0-71-55-121-102-149-35-21-75-34-116-34C53-136 0-108 0-47 0 24 55 74 102 102c35 21 75 34 116 34z" fill="currentColor" id="path1444"/>
    </g>
  </a>
  <a style="color:inherit" id="a1454" transform="translate(-1.26 -2.707)">
    <g transform="translate(32.949 50.242)" id="g1452">
      <path transform="scale(.004 -.004)" d="M218 136c55 0 108-28 108-89 0-71-55-121-102-149-35-21-75-34-116-34C53-136 0-108 0-47 0 24 55 74 102 102c35 21 75 34 116 34z" fill="currentColor" id="path1450"/>
    </g>
  </a>
  <a style="color:inherit" id="a1460" transform="translate(-1.26 -2.707)">
    <g transform="translate(32.949 40.217)" id="g1458">
      <path transform="scale(.004 -.004)" d="M218 136c55 0 108-28 108-89 0-71-55-121-102-149-35-21-75-34-116-34C53-136 0-108 0-47 0 24 55 74 102 102c35 21 75 34 116 34z" fill="currentColor" id="path1456"/>
    </g>
  </a>
  <a style="color:inherit" id="a1466" transform="translate(-1.26 -2.707)">
    <g transform="translate(32.949 41.217)" id="g1464">
      <path transform="scale(.004 -.004)" d="M218 136c55 0 108-28 108-89 0-71-55-121-102-149-35-21-75-34-116-34C53-136 0-108 0-47 0 24 55 74 102 102c35 21 75 34 116 34z" fill="currentColor" id="path1462"/>
    </g>
  </a>
  <a style="color:inherit" id="a1472" transform="translate(-1.26 -2.707)">
    <g transform="translate(32.949 42.717)" id="g1470">
      <path transform="scale(.004 -.004)" d="M218 136c55 0 108-28 108-89 0-71-55-121-102-149-35-21-75-34-116-34C53-136 0-108 0-47 0 24 55 74 102 102c35 21 75 34 116 34z" fill="currentColor" id="path1468"/>
    </g>
  </a>
  <g transform="translate(18.281 44.74)" id="g1478">
    <text font-family="serif" font-weight="bold" font-style="italic" font-size="2.2" text-anchor="start" fill="currentColor" id="text1476"><tspan id="tspan1474">8</tspan></text>
  </g>
  <g transform="translate(20.118 43.955)" id="g1482">
    <path stroke-linejoin="round" stroke-linecap="round" stroke-width=".1" stroke="currentColor" id="line1480" d="M14.375 0v.8"/>
  </g>
  <g transform="translate(20.118 43.955)" id="g1486">
    <path stroke-linejoin="round" stroke-linecap="round" stroke-width=".1" stroke="currentColor" id="line1484" d="M0 0h0"/>
  </g>
  <g transform="translate(20.118 43.955)" id="g1490">
    <path stroke-linejoin="round" stroke-linecap="round" stroke-width=".1" stroke="currentColor" stroke-dasharray="0.301583, 0.703693" id="line1488" d="M0 0h14.375"/>
  </g>
  <g transform="translate(10.921 57.034)" id="g1494">
    <path transform="scale(.004 -.004)" d="M490-250h-92c-6 0-10 4-10 10v480c0 6 4 10 10 10h92c6 0 10-4 10-10v-480c0-6-4-10-10-10zm-220 0h-93c-6 0-10 4-10 10v480c0 6 4 10 10 10h93c6 0 10-4 10-10v-480c0-6-4-10-10-10z" fill="currentColor" id="path1492"/>
  </g>
  <g transform="translate(14.541 49.034)" id="g1498">
    <path transform="scale(.004 -.004)" d="m27 41-1-66v-11c0-22 1-44 4-66 45 38 93 80 93 139 0 33-14 67-43 67-31 0-52-30-53-63Zm-42-179-12 595c8 5 18 8 27 8s19-3 27-8l-7-345c25 21 58 34 91 34 52 0 89-48 89-102 0-80-86-117-147-169-15-13-24-38-45-38-13 0-23 11-23 25z" fill="currentColor" id="path1496"/>
  </g>
  <g transform="translate(10.921 47.034)" id="g1502">
    <path transform="scale(.004 -.004)" d="M557-125c0 28 23 51 51 51s51-23 51-51-23-51-51-51-51 23-51 51zm0 250c0 28 23 51 51 51s51-23 51-51-23-51-51-51-51 23-51 51zM232 263c172 0 293-88 293-251 0-263-263-414-516-521-3-3-6-4-9-4-7 0-13 6-13 13 0 3 1 6 4 9C193-373 403-226 403 2c0 120-63 235-171 235-74 0-129-54-154-126 11 5 22 8 34 8 55 0 100-45 100-100 0-58-44-106-100-106C52-87 0-40 0 19c0 133 102 244 232 244Z" fill="currentColor" id="path1500"/>
  </g>
  <g transform="translate(14.541 38.01)" id="g1506">
    <path transform="scale(.004 -.004)" d="m27 41-1-66v-11c0-22 1-44 4-66 45 38 93 80 93 139 0 33-14 67-43 67-31 0-52-30-53-63Zm-42-179-12 595c8 5 18 8 27 8s19-3 27-8l-7-345c25 21 58 34 91 34 52 0 89-48 89-102 0-80-86-117-147-169-15-13-24-38-45-38-13 0-23 11-23 25z" fill="currentColor" id="path1504"/>
  </g>
  <g transform="translate(10.921 39.01)" id="g1510">
    <path transform="scale(.004 -.004)" d="M266-635h-6c-108 0-195 88-195 197 0 58 53 103 112 103 54 0 95-47 95-103 0-52-43-95-95-95-11 0-21 2-31 6 26-39 68-65 117-65h4zm195 432c68 24 113 95 113 164 0 90-66 179-173 190 24-116 46-231 60-354zM74 28c0-135 129-247 264-247 28 0 55 2 82 6-14 127-37 245-63 364-79-8-124-61-124-119 0-44 25-91 81-123 5-5 7-10 7-15 0-11-10-22-22-22-3 0-6 1-9 2C210-83 173-11 173 59c0 88 58 174 160 197-14 58-29 117-46 175C180 310 74 188 74 28Zm261-290C147-262 2-90 2 112c0 177 131 306 248 441-19 62-37 125-45 190-6 52-7 104-7 156 0 115 55 224 149 292 6 5 14 5 20 0 71-84 133-245 133-358 0-143-86-255-180-364 21-68 39-138 56-207 4 0 9 1 13 1 155 0 256-128 256-261 0-76-33-154-107-210-22-17-47-28-73-36 3-35 5-70 5-105 0-19-1-39-2-58-7-119-88-225-202-228l1 43c93 2 153 92 159 191 1 18 2 37 2 55 0 31-1 61-4 92-29-5-58-8-89-8zm93 1178c0 55-4 79-20 129-99-48-162-149-162-259 0-74 18-133 36-194 80 97 146 198 146 324z" fill="currentColor" id="path1508"/>
  </g>
  <g transform="translate(8.994 34.96)" id="g1516">
    <text font-family="serif" font-size="1.746" text-anchor="start" fill="currentColor" id="text1514"><tspan id="tspan1512">2</tspan></text>
  </g>
  <g transform="translate(10.061 47.522)" id="g1520">
    <rect x="0" y="-11.562" width=".16" height="23.124" ry=".05" fill="currentColor" id="rect1518"/>
  </g>
  <g transform="translate(2.728 57.82)" id="g1526">
    <text font-family="serif" font-size="2.2" text-anchor="start" fill="currentColor" id="text1524"><tspan id="tspan1522">Drum </tspan></text>
  </g>
  <g transform="translate(3.923 48.82)" id="g1532">
    <text font-family="serif" font-size="2.2" text-anchor="start" fill="currentColor" id="text1530"><tspan id="tspan1528">Bass </tspan></text>
  </g>
  <g transform="translate(4.509 38.812)" id="g1538">
    <text font-family="serif" font-size="2.2" text-anchor="start" fill="currentColor" id="text1536"><tspan id="tspan1534">Gtr. </tspan></text>
  </g>
  <a style="color:inherit" id="a1544" transform="translate(-1.26 -2.707)">
    <g transform="translate(21.03 61.242)" id="g1542">
      <path transform="scale(.004 -.004)" d="M218 136c55 0 108-28 108-89 0-71-55-121-102-149-35-21-75-34-116-34C53-136 0-108 0-47 0 24 55 74 102 102c35 21 75 34 116 34z" fill="currentColor" id="path1540"/>
    </g>
  </a>
  <g transform="translate(19.835 48.034)" id="g1548">
    <rect x="-.065" y="-1.314" width=".13" height="3.314" ry=".04" fill="currentColor" id="rect1546"/>
  </g>
  <g transform="translate(21.525 38.51)" id="g1552">
    <path transform="scale(.004 -.004)" d="M0 0c0 31 25 56 56 56s56-25 56-56-25-56-56-56S0-31 0 0Z" fill="currentColor" id="path1550"/>
  </g>
  <g transform="translate(21.525 39.51)" id="g1556">
    <path transform="scale(.004 -.004)" d="M0 0c0 31 25 56 56 56s56-25 56-56-25-56-56-56S0-31 0 0Z" fill="currentColor" id="path1554"/>
  </g>
  <g transform="translate(21.01 38.01)" id="g1560">
    <rect x="-.065" y="-3" width=".13" height="6.814" ry=".04" fill="currentColor" id="rect1558"/>
  </g>
  <g transform="translate(21.525 41.51)" id="g1564">
    <path transform="scale(.004 -.004)" d="M0 0c0 31 25 56 56 56s56-25 56-56-25-56-56-56S0-31 0 0Z" fill="currentColor" id="path1562"/>
  </g>
  <g transform="translate(33.443 47.534)" id="g1568">
    <path transform="scale(.004 -.004)" d="M0 0c0 31 25 56 56 56s56-25 56-56-25-56-56-56S0-31 0 0Z" fill="currentColor" id="path1566"/>
  </g>
  <a style="color:inherit" id="a1574" transform="translate(-1.26 -2.707)">
    <g transform="translate(21.03 57.242)" id="g1572">
      <path transform="scale(.004 -.004)" d="M194 171c100 0 194-73 194-171s-94-171-194-171S0-98 0 0s94 171 194 171ZM166 0 70 84C48 60 36 30 36 0s12-60 34-84Zm28 24 95 83c-27 18-60 28-95 28s-69-10-96-28zm0-48-96-83c27-18 61-28 96-28s68 10 95 28zm27 24 97-84c22 24 33 54 33 84s-11 60-33 84z" fill="currentColor" id="path1570"/>
    </g>
  </a>
  <a style="color:inherit" id="a1580" transform="translate(-1.26 -2.707)">
    <g transform="translate(21.03 49.242)" id="g1578">
      <path transform="scale(.004 -.004)" d="M218 136c55 0 108-28 108-89 0-71-55-121-102-149-35-21-75-34-116-34C53-136 0-108 0-47 0 24 55 74 102 102c35 21 75 34 116 34z" fill="currentColor" id="path1576"/>
    </g>
  </a>
  <a style="color:inherit" id="a1586" transform="translate(-1.26 -2.707)">
    <g transform="translate(21.03 41.217)" id="g1584">
      <path transform="scale(.004 -.004)" d="M218 136c55 0 108-28 108-89 0-71-55-121-102-149-35-21-75-34-116-34C53-136 0-108 0-47 0 24 55 74 102 102c35 21 75 34 116 34z" fill="currentColor" id="path1582"/>
    </g>
  </a>
  <a style="color:inherit" id="a1592" transform="translate(-1.26 -2.707)">
    <g transform="translate(21.03 42.717)" id="g1590">
      <path transform="scale(.004 -.004)" d="M218 136c55 0 108-28 108-89 0-71-55-121-102-149-35-21-75-34-116-34C53-136 0-108 0-47 0 24 55 74 102 102c35 21 75 34 116 34z" fill="currentColor" id="path1588"/>
    </g>
  </a>
  <a style="color:inherit" id="a1598" transform="translate(-1.26 -2.707)">
    <g transform="translate(21.03 44.717)" id="g1596">
      <path transform="scale(.004 -.004)" d="M218 136c55 0 108-28 108-89 0-71-55-121-102-149-35-21-75-34-116-34C53-136 0-108 0-47 0 24 55 74 102 102c35 21 75 34 116 34z" fill="currentColor" id="path1594"/>
    </g>
  </a>
  <g transform="translate(51.799 57.034)" id="g1602">
    <rect x="-.065" y="-5" width=".13" height="2.08" ry=".04" fill="currentColor" id="rect1600"/>
  </g>
  <a style="color:inherit" id="a1608" transform="translate(-1.26 -2.707)">
    <g transform="translate(51.82 57.242)" id="g1606">
      <path transform="scale(.004 -.004)" d="m163 36 119 97c3 2 6 3 9 3s7-1 10-3l20-16c3-3 5-8 5-12s-2-9-5-12L206 0l115-93c3-3 5-8 5-12s-2-9-5-12l-20-16c-3-2-7-3-10-3s-6 1-9 3L163-36 44-133c-3-2-6-3-9-3s-7 1-10 3L5-117c-3 3-5 8-5 12s2 9 5 12L120 0 5 93c-3 3-5 8-5 12s2 9 5 12l20 16c3 2 7 3 10 3s6-1 9-3z" fill="currentColor" id="path1604"/>
    </g>
  </a>
  <g transform="translate(43.672 57.034)" id="g1612">
    <rect x="-.065" y="-.314" width=".13" height="3.314" ry=".04" fill="currentColor" id="rect1610"/>
  </g>
  <g transform="translate(45.361 56.534)" id="g1616">
    <path transform="scale(.004 -.004)" d="M0 0c0 31 25 56 56 56s56-25 56-56-25-56-56-56S0-31 0 0Z" fill="currentColor" id="path1614"/>
  </g>
  <g transform="translate(44.846 57.034)" id="g1620">
    <rect x="-.065" y="-5" width=".13" height="2.08" ry=".04" fill="currentColor" id="rect1618"/>
  </g>
  <g transform="translate(44.92 48.034)" id="g1624">
    <rect x="-.065" y="-2" width=".13" height="3.241" ry=".04" fill="currentColor" id="rect1622"/>
  </g>
  <g transform="translate(45.434 49.534)" id="g1628">
    <path transform="scale(.004 -.004)" d="M0 0c0 31 25 56 56 56s56-25 56-56-25-56-56-56S0-31 0 0Z" fill="currentColor" id="path1626"/>
  </g>
  <g transform="translate(58.647 57.034)" id="g1632">
    <rect x="-.065" y="-5" width=".13" height="2.08" ry=".04" fill="currentColor" id="rect1630"/>
  </g>
  <a style="color:inherit" id="a1638" transform="translate(-1.26 -2.707)">
    <g transform="translate(58.668 57.242)" id="g1636">
      <path transform="scale(.004 -.004)" d="m163 36 119 97c3 2 6 3 9 3s7-1 10-3l20-16c3-3 5-8 5-12s-2-9-5-12L206 0l115-93c3-3 5-8 5-12s-2-9-5-12l-20-16c-3-2-7-3-10-3s-6 1-9 3L163-36 44-133c-3-2-6-3-9-3s-7 1-10 3L5-117c-3 3-5 8-5 12s2 9 5 12L120 0 5 93c-3 3-5 8-5 12s2 9 5 12l20 16c3 2 7 3 10 3s6-1 9-3z" fill="currentColor" id="path1634"/>
    </g>
  </a>
  <g transform="translate(54.049 57.034)" id="g1642">
    <rect x="-.065" y="1.686" width=".13" height="2.647" ry=".04" fill="currentColor" id="rect1640"/>
  </g>
  <g transform="translate(55.738 36.51)" id="g1646">
    <path transform="scale(.004 -.004)" d="M0 0c0 31 25 56 56 56s56-25 56-56-25-56-56-56S0-31 0 0Z" fill="currentColor" id="path1644"/>
  </g>
  <g transform="translate(55.738 38.51)" id="g1650">
    <path transform="scale(.004 -.004)" d="M0 0c0 31 25 56 56 56s56-25 56-56-25-56-56-56S0-31 0 0Z" fill="currentColor" id="path1648"/>
  </g>
  <g transform="translate(55.223 38.01)" id="g1654">
    <rect x="-.065" y="-4" width=".13" height="5.814" ry=".04" fill="currentColor" id="rect1652"/>
  </g>
  <g transform="translate(55.738 39.51)" id="g1658">
    <path transform="scale(.004 -.004)" d="M0 0c0 31 25 56 56 56s56-25 56-56-25-56-56-56S0-31 0 0Z" fill="currentColor" id="path1656"/>
  </g>
  <a style="color:inherit" id="a1664" transform="translate(-1.26 -2.707)">
    <g transform="translate(55.244 61.242)" id="g1662">
      <path transform="scale(.004 -.004)" d="M218 136c55 0 108-28 108-89 0-71-55-121-102-149-35-21-75-34-116-34C53-136 0-108 0-47 0 24 55 74 102 102c35 21 75 34 116 34z" fill="currentColor" id="path1660"/>
    </g>
  </a>
  <a style="color:inherit" id="a1670" transform="translate(-1.26 -2.707)">
    <g transform="translate(55.244 39.717)" id="g1668">
      <path transform="scale(.004 -.004)" d="M218 136c55 0 108-28 108-89 0-71-55-121-102-149-35-21-75-34-116-34C53-136 0-108 0-47 0 24 55 74 102 102c35 21 75 34 116 34z" fill="currentColor" id="path1666"/>
    </g>
  </a>
  <a style="color:inherit" id="a1676" transform="translate(-1.26 -2.707)">
    <g transform="translate(55.244 41.217)" id="g1674">
      <path transform="scale(.004 -.004)" d="M218 136c55 0 108-28 108-89 0-71-55-121-102-149-35-21-75-34-116-34C53-136 0-108 0-47 0 24 55 74 102 102c35 21 75 34 116 34z" fill="currentColor" id="path1672"/>
    </g>
  </a>
  <a style="color:inherit" id="a1682" transform="translate(-1.26 -2.707)">
    <g transform="translate(55.244 42.717)" id="g1680">
      <path transform="scale(.004 -.004)" d="M218 136c55 0 108-28 108-89 0-71-55-121-102-149-35-21-75-34-116-34C53-136 0-108 0-47 0 24 55 74 102 102c35 21 75 34 116 34z" fill="currentColor" id="path1678"/>
    </g>
  </a>
  <g transform="translate(45.361 36.51)" id="g1686">
    <path transform="scale(.004 -.004)" d="M0 0c0 31 25 56 56 56s56-25 56-56-25-56-56-56S0-31 0 0Z" fill="currentColor" id="path1684"/>
  </g>
  <g transform="translate(38.602 57.034)" id="g1690">
    <rect x="-.065" y="1.686" width=".13" height="2.814" ry=".04" fill="currentColor" id="rect1688"/>
  </g>
  <a style="color:inherit" id="a1696" transform="translate(-1.26 -2.707)">
    <g transform="translate(39.797 61.242)" id="g1694">
      <path transform="scale(.004 -.004)" d="M218 136c55 0 108-28 108-89 0-71-55-121-102-149-35-21-75-34-116-34C53-136 0-108 0-47 0 24 55 74 102 102c35 21 75 34 116 34z" fill="currentColor" id="path1692"/>
    </g>
  </a>
  <g transform="translate(38.667 61.494)" id="g1700">
    <path transform="scale(.004 -.004)" d="M0 0h-16v250H0Zm0 0v250c97 59 224 148 224 259 0 57-15 112-40 163-3 16 10 27 23 27 7 0 15-3 20-11 25-56 40-117 40-179C267 306 0 203 0 0Z" fill="currentColor" id="path1698"/>
  </g>
  <g transform="translate(36.352 57.034)" id="g1704">
    <rect x="-.065" y="-5" width=".13" height="2.08" ry=".04" fill="currentColor" id="rect1702"/>
  </g>
  <a style="color:inherit" id="a1710" transform="translate(-1.26 -2.707)">
    <g transform="translate(36.373 57.242)" id="g1708">
      <path transform="scale(.004 -.004)" d="m163 36 119 97c3 2 6 3 9 3s7-1 10-3l20-16c3-3 5-8 5-12s-2-9-5-12L206 0l115-93c3-3 5-8 5-12s-2-9-5-12l-20-16c-3-2-7-3-10-3s-6 1-9 3L163-36 44-133c-3-2-6-3-9-3s-7 1-10 3L5-117c-3 3-5 8-5 12s2 9 5 12L120 0 5 93c-3 3-5 8-5 12s2 9 5 12l20 16c3 2 7 3 10 3s6-1 9-3z" fill="currentColor" id="path1706"/>
    </g>
  </a>
  <g transform="translate(31.754 57.034)" id="g1714">
    <rect x="-.065" y="1.686" width=".13" height="2.647" ry=".04" fill="currentColor" id="rect1712"/>
  </g>
  <g transform="translate(45.361 38.51)" id="g1718">
    <path transform="scale(.004 -.004)" d="M0 0c0 31 25 56 56 56s56-25 56-56-25-56-56-56S0-31 0 0Z" fill="currentColor" id="path1716"/>
  </g>
  <g transform="translate(45.361 37.51)" id="g1722">
    <path transform="scale(.004 -.004)" d="M0 0c0 31 25 56 56 56s56-25 56-56-25-56-56-56S0-31 0 0Z" fill="currentColor" id="path1720"/>
  </g>
  <g transform="translate(43.672 38.01)" id="g1726">
    <rect x="-.065" y="-1.314" width=".13" height="4.981" ry=".04" fill="currentColor" id="rect1724"/>
  </g>
  <a style="color:inherit" id="a1732" transform="translate(-1.26 -2.707)">
    <g transform="translate(44.867 59.242)" id="g1730">
      <path transform="scale(.004 -.004)" d="M218 136c55 0 108-28 108-89 0-71-55-121-102-149-35-21-75-34-116-34C53-136 0-108 0-47 0 24 55 74 102 102c35 21 75 34 116 34z" fill="currentColor" id="path1728"/>
    </g>
  </a>
  <a style="color:inherit" id="a1738" transform="translate(-1.26 -2.707)">
    <g transform="translate(44.867 41.217)" id="g1736">
      <path transform="scale(.004 -.004)" d="M218 136c55 0 108-28 108-89 0-71-55-121-102-149-35-21-75-34-116-34C53-136 0-108 0-47 0 24 55 74 102 102c35 21 75 34 116 34z" fill="currentColor" id="path1734"/>
    </g>
  </a>
  <a style="color:inherit" id="a1744" transform="translate(-1.26 -2.707)">
    <g transform="translate(44.867 40.217)" id="g1742">
      <path transform="scale(.004 -.004)" d="M218 136c55 0 108-28 108-89 0-71-55-121-102-149-35-21-75-34-116-34C53-136 0-108 0-47 0 24 55 74 102 102c35 21 75 34 116 34z" fill="currentColor" id="path1740"/>
    </g>
  </a>
  <a style="color:inherit" id="a1750" transform="translate(-1.26 -2.707)">
    <g transform="translate(44.867 39.217)" id="g1748">
      <path transform="scale(.004 -.004)" d="M218 136c55 0 108-28 108-89 0-71-55-121-102-149-35-21-75-34-116-34C53-136 0-108 0-47 0 24 55 74 102 102c35 21 75 34 116 34z" fill="currentColor" id="path1746"/>
    </g>
  </a>
  <a style="color:inherit" id="a1756" transform="translate(-1.26 -2.707)">
    <g transform="translate(44.867 52.242)" id="g1754">
      <path transform="scale(.004 -.004)" d="M314 65c0 24-21 41-42 41-4 0-8 0-12-1-31-9-78-40-115-64S61-12 41-37c-7-8-10-18-10-28 0-24 21-41 42-41 4 0 8 0 12 1 31 9 77 40 114 64s84 53 104 78c7 8 11 18 11 28zm-52 71c46 0 82-21 82-71 0-19-4-39-10-57-12-37-32-72-64-94-53-36-113-50-187-50-46 0-83 21-83 71C0-46 5-26 11-8c12 37 31 72 63 94 53 36 114 50 188 50z" fill="currentColor" id="path1752"/>
    </g>
  </a>
  <a style="color:inherit" id="a1762" transform="translate(-1.26 -2.707)">
    <g transform="translate(44.867 57.242)" id="g1760">
      <path transform="scale(.004 -.004)" d="m163 36 119 97c3 2 6 3 9 3s7-1 10-3l20-16c3-3 5-8 5-12s-2-9-5-12L206 0l115-93c3-3 5-8 5-12s-2-9-5-12l-20-16c-3-2-7-3-10-3s-6 1-9 3L163-36 44-133c-3-2-6-3-9-3s-7 1-10 3L5-117c-3 3-5 8-5 12s2 9 5 12L120 0 5 93c-3 3-5 8-5 12s2 9 5 12l20 16c3 2 7 3 10 3s6-1 9-3z" fill="currentColor" id="path1758"/>
    </g>
  </a>
</svg>
